AdventPro-reg_wd_it.ufo
<glyph name="exclam" format="1">
  <advance width="148" height="962"/>
  <unicode hex="0021"/>
  <outline>
    <contour>
      <point x="183" y="673" type="line"/>
      <point x="189" y="699"/>
      <point x="203" y="710"/>
      <point x="224" y="710" type="curve" smooth="yes"/>
      <point x="247" y="710"/>
      <point x="255" y="698"/>
      <point x="250" y="674" type="curve"/>
      <point x="124" y="121" type="line"/>
      <point x="76" y="121" type="line"/>
    </contour>
    <contour>
      <point x="87" y="67" type="curve" smooth="yes"/>
      <point x="106" y="67"/>
      <point x="118" y="53"/>
      <point x="114" y="34" type="curve" smooth="yes"/>
      <point x="110" y="16"/>
      <point x="92" y="0"/>
      <point x="73" y="0" type="curve" smooth="yes"/>
      <point x="55" y="0"/>
      <point x="43" y="16"/>
      <point x="47" y="34" type="curve" smooth="yes"/>
      <point x="51" y="53"/>
      <point x="69" y="67"/>
    </contour>
  </outline>
</glyph>
<glyph name="ampersand" format="2">
  <advance width="762"/>
  <unicode hex="0026"/>
  <outline>
    <contour>
      <point x="713" y="653" type="line"/>
      <point x="455" y="653" type="line" smooth="yes"/>
      <point x="370" y="653"/>
      <point x="312" y="614"/>
      <point x="298" y="550" type="curve" smooth="yes"/>
      <point x="279" y="461"/>
      <point x="383" y="403"/>
      <point x="503" y="403" type="curve" smooth="yes"/>
      <point x="611" y="403" type="line"/>
      <point x="633" y="507" type="line"/>
      <point x="690" y="507" type="line"/>
      <point x="668" y="404" type="line"/>
      <point x="818" y="404" type="line"/>
      <point x="788" y="350" type="line"/>
      <point x="656" y="350" type="line"/>
      <point x="611" y="137" type="line" smooth="yes"/>
      <point x="600" y="84"/>
      <point x="629" y="50"/>
      <point x="692" y="34" type="curve"/>
      <point x="664" y="-9" type="line"/>
      <point x="598" y="5"/>
      <point x="563" y="42"/>
      <point x="552" y="81" type="curve"/>
      <point x="479" y="11"/>
      <point x="360" y="-6"/>
      <point x="294" y="-6" type="curve" smooth="yes"/>
      <point x="129" y="-6"/>
      <point x="34" y="26"/>
      <point x="62" y="160" type="curve" smooth="yes"/>
      <point x="82" y="255" type="line" smooth="yes"/>
      <point x="108" y="378"/>
      <point x="192" y="403"/>
      <point x="302" y="403" type="curve" smooth="yes"/>
      <point x="330" y="403" type="line"/>
      <point x="248" y="443"/>
      <point x="233" y="497"/>
      <point x="242" y="551" type="curve" smooth="yes"/>
      <point x="258" y="642"/>
      <point x="338" y="704"/>
      <point x="471" y="704" type="curve" smooth="yes"/>
      <point x="739" y="704" type="line"/>
    </contour>
    <contour>
      <point x="599" y="350" type="line"/>
      <point x="319" y="350" type="line" smooth="yes"/>
      <point x="265" y="350"/>
      <point x="163" y="364"/>
      <point x="140" y="252" type="curve" smooth="yes"/>
      <point x="121" y="165" type="line" smooth="yes"/>
      <point x="100" y="67"/>
      <point x="192" y="42"/>
      <point x="323" y="50" type="curve" smooth="yes"/>
      <point x="445" y="58"/>
      <point x="548" y="107"/>
      <point x="563" y="177" type="curve" smooth="yes"/>
    </contour>
  </outline>
</glyph>
<glyph name="quotesingle" format="1">
  <advance width="267" height="962"/>
  <unicode hex="0027"/>
  <outline>
    <contour>
      <point x="250" y="704" type="line"/>
      <point x="260" y="751"/>
      <point x="327" y="751"/>
      <point x="317" y="704" type="curve"/>
      <point x="278" y="589" type="line"/>
      <point x="238" y="589" type="line"/>
    </contour>
  </outline>
</glyph>
<glyph name="plus" format="2">
  <advance width="569" height="962"/>
  <unicode hex="002B"/>
  <outline>
    <contour>
      <point x="427" y="530" type="line"/>
      <point x="399" y="398" type="line"/>
      <point x="567" y="398" type="line"/>
      <point x="555" y="343" type="line"/>
      <point x="387" y="343" type="line"/>
      <point x="359" y="210" type="line"/>
      <point x="300" y="210" type="line"/>
      <point x="328" y="343" type="line"/>
      <point x="155" y="343" type="line"/>
      <point x="167" y="398" type="line"/>
      <point x="340" y="398" type="line"/>
      <point x="368" y="530" type="line"/>
    </contour>
  </outline>
</glyph>
<glyph name="comma" format="1">
  <advance width="267" height="962"/>
  <unicode hex="002C"/>
  <outline>
    <contour>
      <point x="81" y="-85" type="line"/>
      <point x="107" y="-59"/>
      <point x="120" y="-32"/>
      <point x="128" y="-10" type="curve"/>
      <point x="112" y="-8"/>
      <point x="103" y="7"/>
      <point x="107" y="23" type="curve" smooth="yes"/>
      <point x="111" y="42"/>
      <point x="128" y="56"/>
      <point x="147" y="56" type="curve" smooth="yes"/>
      <point x="165" y="56"/>
      <point x="176" y="43"/>
      <point x="174" y="23" type="curve"/>
      <point x="160" y="-40"/>
      <point x="118" y="-80"/>
      <point x="95" y="-98" type="curve"/>
    </contour>
  </outline>
</glyph>
<glyph name="hyphen" format="2">
  <advance width="392"/>
  <unicode hex="002D"/>
  <outline>
    <contour>
      <point x="110" y="356" type="line"/>
      <point x="122" y="414" type="line"/>
      <point x="442" y="414" type="line"/>
      <point x="430" y="356" type="line"/>
    </contour>
  </outline>
</glyph>
<glyph name="two" format="2">
  <advance width="605" height="962"/>
  <unicode hex="0032"/>
  <outline>
    <contour>
      <point x="188" y="590" type="line"/>
      <point x="253" y="673"/>
      <point x="363" y="709"/>
      <point x="463" y="710" type="curve" smooth="yes"/>
      <point x="591" y="712"/>
      <point x="706" y="652"/>
      <point x="684" y="551" type="curve" smooth="yes"/>
      <point x="673" y="501"/>
      <point x="644" y="451"/>
      <point x="560" y="385" type="curve" smooth="yes"/>
      <point x="139" y="53" type="line"/>
      <point x="580" y="53" type="line"/>
      <point x="569" y="0" type="line"/>
      <point x="44" y="0" type="line"/>
      <point x="55" y="53" type="line"/>
      <point x="512" y="416" type="line" smooth="yes"/>
      <point x="587" y="475"/>
      <point x="607" y="508"/>
      <point x="616" y="549" type="curve" smooth="yes"/>
      <point x="631" y="622"/>
      <point x="545" y="655"/>
      <point x="450" y="655" type="curve" smooth="yes"/>
      <point x="371" y="655"/>
      <point x="279" y="623"/>
      <point x="230" y="564" type="curve"/>
    </contour>
  </outline>
</glyph>
<glyph name="three" format="1">
  <advance width="638" height="962"/>
  <unicode hex="0033"/>
  <outline>
    <contour>
      <point x="391" y="414" type="line" smooth="yes"/>
      <point x="581" y="414"/>
      <point x="681" y="341"/>
      <point x="653" y="205" type="curve" smooth="yes"/>
      <point x="624" y="71"/>
      <point x="476" y="-12"/>
      <point x="298" y="-12" type="curve" smooth="yes"/>
      <point x="170" y="-12"/>
      <point x="89" y="25"/>
      <point x="42" y="82" type="curve"/>
      <point x="90" y="115" type="line"/>
      <point x="133" y="69"/>
      <point x="214" y="44"/>
      <point x="310" y="44" type="curve" smooth="yes"/>
      <point x="440" y="44"/>
      <point x="571" y="103"/>
      <point x="593" y="205" type="curve" smooth="yes"/>
      <point x="614" y="307"/>
      <point x="525" y="356"/>
      <point x="387" y="356" type="curve" smooth="yes"/>
      <point x="211" y="356" type="line"/>
      <point x="573" y="643" type="line"/>
      <point x="228" y="643" type="line"/>
      <point x="240" y="700" type="line"/>
      <point x="675" y="700" type="line"/>
      <point x="664" y="651" type="line"/>
      <point x="366" y="414" type="line"/>
    </contour>
  </outline>
</glyph>
<glyph name="seven" format="1">
  <advance width="632" height="962"/>
  <unicode hex="0037"/>
  <outline>
    <contour>
      <point x="121" y="0" type="line"/>
      <point x="51" y="0" type="line"/>
      <point x="679" y="643" type="line"/>
      <point x="163" y="643" type="line"/>
      <point x="175" y="700" type="line"/>
      <point x="763" y="700" type="line"/>
      <point x="751" y="645" type="line"/>
    </contour>
  </outline>
</glyph>
<glyph name="nine" format="2">
  <advance width="692" height="962"/>
  <unicode hex="0039"/>
  <outline>
    <contour>
      <point x="491" y="709" type="curve" smooth="yes"/>
      <point x="670" y="709"/>
      <point x="793" y="626"/>
      <point x="766" y="497" type="curve" smooth="yes"/>
      <point x="711" y="239" type="line" smooth="yes"/>
      <point x="681" y="97"/>
      <point x="507" y="-1"/>
      <point x="294" y="-1" type="curve" smooth="yes"/>
      <point x="241" y="-1" type="line"/>
      <point x="252" y="54" type="line"/>
      <point x="309" y="54" type="line" smooth="yes"/>
      <point x="482" y="54"/>
      <point x="629" y="134"/>
      <point x="653" y="246" type="curve" smooth="yes"/>
      <point x="680" y="373" type="line"/>
      <point x="604" y="309"/>
      <point x="497" y="285"/>
      <point x="406" y="285" type="curve" smooth="yes"/>
      <point x="229" y="285"/>
      <point x="97" y="358"/>
      <point x="127" y="497" type="curve" smooth="yes"/>
      <point x="152" y="617"/>
      <point x="313" y="709"/>
    </contour>
    <contour>
      <point x="479" y="654" type="curve" smooth="yes"/>
      <point x="340" y="654"/>
      <point x="208" y="594"/>
      <point x="188" y="497" type="curve" smooth="yes"/>
      <point x="165" y="390"/>
      <point x="283" y="340"/>
      <point x="412" y="340" type="curve" smooth="yes"/>
      <point x="544" y="340"/>
      <point x="684" y="400"/>
      <point x="705" y="497" type="curve" smooth="yes"/>
      <point x="725" y="594"/>
      <point x="621" y="654"/>
    </contour>
  </outline>
</glyph>
<glyph name="semicolon" format="2">
  <advance width="150" height="962"/>
  <unicode hex="003B"/>
  <outline>
    <contour>
      <point x="45" y="35" type="line"/>
      <point x="73" y="62"/>
      <point x="86" y="89"/>
      <point x="93" y="111" type="curve"/>
      <point x="77" y="113"/>
      <point x="68" y="128"/>
      <point x="72" y="144" type="curve" smooth="yes"/>
      <point x="75" y="162"/>
      <point x="94" y="177"/>
      <point x="112" y="177" type="curve" smooth="yes"/>
      <point x="131" y="177"/>
      <point x="142" y="164"/>
      <point x="140" y="144" type="curve"/>
      <point x="126" y="81"/>
      <point x="84" y="40"/>
      <point x="60" y="23" type="curve"/>
    </contour>
    <contour>
      <point x="193" y="385" type="curve" smooth="yes"/>
      <point x="189" y="367"/>
      <point x="171" y="352"/>
      <point x="152" y="352" type="curve" smooth="yes"/>
      <point x="135" y="352"/>
      <point x="121" y="367"/>
      <point x="125" y="385" type="curve" smooth="yes"/>
      <point x="129" y="404"/>
      <point x="149" y="418"/>
      <point x="166" y="418" type="curve" smooth="yes"/>
      <point x="185" y="418"/>
      <point x="197" y="404"/>
    </contour>
  </outline>
</glyph>
<glyph name="equal" format="1">
  <advance width="391" height="962"/>
  <unicode hex="003D"/>
  <outline>
    <contour>
      <point x="110" y="357" type="line"/>
      <point x="122" y="412" type="line"/>
      <point x="442" y="412" type="line"/>
      <point x="430" y="357" type="line"/>
    </contour>
    <contour>
      <point x="88" y="253" type="line"/>
      <point x="99" y="308" type="line"/>
      <point x="419" y="308" type="line"/>
      <point x="408" y="253" type="line"/>
    </contour>
  </outline>
</glyph>
<glyph name="question" format="1">
  <advance width="581" height="962"/>
  <unicode hex="003F"/>
  <outline>
    <contour>
      <point x="138" y="532" type="line"/>
      <point x="164" y="654"/>
      <point x="312" y="709"/>
      <point x="444" y="709" type="curve" smooth="yes"/>
      <point x="576" y="709"/>
      <point x="689" y="647"/>
      <point x="665" y="538" type="curve" smooth="yes"/>
      <point x="649" y="460"/>
      <point x="568" y="407"/>
      <point x="492" y="364" type="curve" smooth="yes"/>
      <point x="421" y="323"/>
      <point x="364" y="290"/>
      <point x="346" y="207" type="curve" smooth="yes"/>
      <point x="328" y="120" type="line"/>
      <point x="273" y="120" type="line"/>
      <point x="292" y="212" type="line" smooth="yes"/>
      <point x="311" y="301"/>
      <point x="365" y="345"/>
      <point x="435" y="387" type="curve" smooth="yes"/>
      <point x="503" y="428"/>
      <point x="593" y="469"/>
      <point x="607" y="535" type="curve" smooth="yes"/>
      <point x="625" y="622"/>
      <point x="526" y="656"/>
      <point x="432" y="656" type="curve" smooth="yes"/>
      <point x="332" y="656"/>
      <point x="215" y="628"/>
      <point x="195" y="532" type="curve"/>
    </contour>
    <contour>
      <point x="288" y="57" type="curve" smooth="yes"/>
      <point x="305" y="57"/>
      <point x="318" y="43"/>
      <point x="314" y="24" type="curve" smooth="yes"/>
      <point x="310" y="6"/>
      <point x="291" y="-9"/>
      <point x="274" y="-9" type="curve" smooth="yes"/>
      <point x="255" y="-9"/>
      <point x="242" y="6"/>
      <point x="246" y="24" type="curve" smooth="yes"/>
      <point x="250" y="43"/>
      <point x="269" y="57"/>
    </contour>
  </outline>
</glyph>
<glyph name="at" format="2">
  <advance width="1030"/>
  <unicode hex="0040"/>
  <outline>
    <contour>
      <point x="1115" y="452" type="line"/>
      <point x="1079" y="441"/>
      <point x="1058" y="419"/>
      <point x="1050" y="381" type="curve"/>
      <point x="1006" y="171" type="line" smooth="yes"/>
      <point x="969" y="-8"/>
      <point x="726" y="-66"/>
      <point x="482" y="-66" type="curve" smooth="yes"/>
      <point x="236" y="-66"/>
      <point x="31" y="1"/>
      <point x="70" y="184" type="curve" smooth="yes"/>
      <point x="103" y="339" type="line" smooth="yes"/>
      <point x="135" y="489"/>
      <point x="292" y="579"/>
      <point x="535" y="579" type="curve" smooth="yes"/>
      <point x="751" y="579"/>
      <point x="843" y="518"/>
      <point x="846" y="443" type="curve"/>
      <point x="948" y="443" type="line"/>
      <point x="917" y="389" type="line"/>
      <point x="839" y="389" type="line"/>
      <point x="771" y="69" type="line"/>
      <point x="773" y="69"/>
      <point x="590" y="62"/>
      <point x="521" y="61" type="curve" smooth="yes"/>
      <point x="377" y="58"/>
      <point x="233" y="71"/>
      <point x="263" y="214" type="curve" smooth="yes"/>
      <point x="282" y="299" type="line" smooth="yes"/>
      <point x="306" y="416"/>
      <point x="393" y="443"/>
      <point x="504" y="443" type="curve" smooth="yes"/>
      <point x="787" y="443" type="line"/>
      <point x="772" y="498"/>
      <point x="670" y="531"/>
      <point x="529" y="531" type="curve" smooth="yes"/>
      <point x="361" y="531"/>
      <point x="193" y="477"/>
      <point x="165" y="342" type="curve" smooth="yes"/>
      <point x="132" y="190" type="line" smooth="yes"/>
      <point x="99" y="34"/>
      <point x="268" y="-11"/>
      <point x="506" y="-11" type="curve" smooth="yes"/>
      <point x="706" y="-11"/>
      <point x="919" y="31"/>
      <point x="948" y="169" type="curve" smooth="yes"/>
      <point x="989" y="364" type="line" smooth="yes"/>
      <point x="1004" y="434"/>
      <point x="1024" y="476"/>
      <point x="1102" y="493" type="curve"/>
    </contour>
    <contour>
      <point x="477" y="389" type="line" smooth="yes"/>
      <point x="432" y="389"/>
      <point x="359" y="384"/>
      <point x="340" y="296" type="curve" smooth="yes"/>
      <point x="323" y="218" type="line" smooth="yes"/>
      <point x="307" y="139"/>
      <point x="382" y="112"/>
      <point x="502" y="112" type="curve" smooth="yes"/>
      <point x="607" y="112"/>
      <point x="725" y="121"/>
      <point x="725" y="120" type="curve"/>
      <point x="782" y="389" type="line"/>
    </contour>
  </outline>
</glyph>
<glyph name="A" format="1">
  <advance width="795" height="962"/>
  <unicode hex="0041"/>
  <outline>
    <contour>
      <point x="775" y="0" type="line"/>
      <point x="711" y="0" type="line"/>
      <point x="638" y="245" type="line"/>
      <point x="259" y="245" type="line"/>
      <point x="86" y="0" type="line"/>
      <point x="22" y="0" type="line"/>
      <point x="517" y="700" type="line"/>
      <point x="572" y="700" type="line"/>
    </contour>
    <contour>
      <point x="295" y="300" type="line"/>
      <point x="626" y="300" type="line"/>
      <point x="533" y="640" type="line"/>
    </contour>
  </outline>
</glyph>
<glyph name="B" format="2">
  <advance width="711"/>
  <unicode hex="0042"/>
  <outline>
    <contour>
      <point x="548" y="700" type="line" smooth="yes"/>
      <point x="716" y="700"/>
      <point x="763" y="633"/>
      <point x="742" y="536" type="curve" smooth="yes"/>
      <point x="727" y="468"/>
      <point x="687" y="425"/>
      <point x="617" y="393" type="curve"/>
      <point x="698" y="369"/>
      <point x="748" y="312"/>
      <point x="726" y="209" type="curve" smooth="yes"/>
      <point x="699" y="78"/>
      <point x="606" y="0"/>
      <point x="416" y="0" type="curve" smooth="yes"/>
      <point x="41" y="0" type="line"/>
      <point x="190" y="700" type="line"/>
    </contour>
    <contour>
      <point x="468" y="412" type="line" smooth="yes"/>
      <point x="579" y="412"/>
      <point x="665" y="455"/>
      <point x="682" y="536" type="curve" smooth="yes"/>
      <point x="697" y="606"/>
      <point x="651" y="647"/>
      <point x="535" y="647" type="curve" smooth="yes"/>
      <point x="236" y="647" type="line"/>
      <point x="186" y="412" type="line"/>
    </contour>
    <contour>
      <point x="424" y="53" type="line" smooth="yes"/>
      <point x="558" y="53"/>
      <point x="641" y="96"/>
      <point x="666" y="213" type="curve" smooth="yes"/>
      <point x="685" y="301"/>
      <point x="609" y="357"/>
      <point x="483" y="357" type="curve" smooth="yes"/>
      <point x="174" y="357" type="line"/>
      <point x="109" y="53" type="line"/>
    </contour>
  </outline>
</glyph>
<glyph name="C" format="2">
  <advance width="605"/>
  <unicode hex="0043"/>
  <outline>
    <contour>
      <point x="661" y="638" type="line"/>
      <point x="609" y="653"/>
      <point x="538" y="660"/>
      <point x="486" y="660" type="curve" smooth="yes"/>
      <point x="329" y="660"/>
      <point x="226" y="629"/>
      <point x="201" y="514" type="curve" smooth="yes"/>
      <point x="132" y="186" type="line" smooth="yes"/>
      <point x="107" y="71"/>
      <point x="188" y="40"/>
      <point x="350" y="40" type="curve" smooth="yes"/>
      <point x="408" y="40"/>
      <point x="492" y="51"/>
      <point x="580" y="71" type="curve"/>
      <point x="583" y="23" type="line"/>
      <point x="494" y="1"/>
      <point x="409" y="-10"/>
      <point x="333" y="-10" type="curve" smooth="yes"/>
      <point x="134" y="-10"/>
      <point x="44" y="40"/>
      <point x="74" y="184" type="curve" smooth="yes"/>
      <point x="143" y="510" type="line" smooth="yes"/>
      <point x="175" y="660"/>
      <point x="295" y="710"/>
      <point x="470" y="710" type="curve" smooth="yes"/>
      <point x="548" y="710"/>
      <point x="627" y="699"/>
      <point x="685" y="677" type="curve"/>
    </contour>
  </outline>
</glyph>
<glyph name="G" format="1">
  <advance width="672" height="962"/>
  <unicode hex="0047"/>
  <outline>
    <contour>
      <point x="688" y="635" type="line"/>
      <point x="636" y="649"/>
      <point x="545" y="659"/>
      <point x="484" y="659" type="curve" smooth="yes"/>
      <point x="326" y="659"/>
      <point x="223" y="626"/>
      <point x="199" y="512" type="curve" smooth="yes"/>
      <point x="130" y="187" type="line" smooth="yes"/>
      <point x="110" y="96"/>
      <point x="195" y="44"/>
      <point x="326" y="44" type="curve" smooth="yes"/>
      <point x="470" y="44"/>
      <point x="603" y="99"/>
      <point x="622" y="187" type="curve" smooth="yes"/>
      <point x="634" y="245" type="line"/>
      <point x="420" y="245" type="line"/>
      <point x="412" y="300" type="line"/>
      <point x="705" y="300" type="line"/>
      <point x="641" y="0" type="line"/>
      <point x="585" y="0" type="line"/>
      <point x="592" y="61" type="line"/>
      <point x="528" y="13"/>
      <point x="415" y="-10"/>
      <point x="318" y="-10" type="curve" smooth="yes"/>
      <point x="145" y="-10"/>
      <point x="45" y="58"/>
      <point x="73" y="189" type="curve" smooth="yes"/>
      <point x="140" y="504" type="line" smooth="yes"/>
      <point x="169" y="642"/>
      <point x="271" y="709"/>
      <point x="470" y="709" type="curve" smooth="yes"/>
      <point x="558" y="709"/>
      <point x="652" y="697"/>
      <point x="711" y="676" type="curve"/>
    </contour>
  </outline>
</glyph>
<glyph name="M" format="2">
  <advance width="880"/>
  <unicode hex="004D"/>
  <outline>
    <contour>
      <point x="248" y="700" type="line"/>
      <point x="453" y="76" type="line"/>
      <point x="929" y="700" type="line"/>
      <point x="986" y="700" type="line"/>
      <point x="837" y="0" type="line"/>
      <point x="780" y="0" type="line"/>
      <point x="902" y="575" type="line"/>
      <point x="461" y="0" type="line"/>
      <point x="414" y="0" type="line"/>
      <point x="221" y="575" type="line"/>
      <point x="99" y="0" type="line"/>
      <point x="41" y="0" type="line"/>
      <point x="190" y="700" type="line"/>
    </contour>
  </outline>
</glyph>
<glyph name="Q" format="2">
  <advance width="701"/>
  <unicode hex="0051"/>
  <outline>
    <component base="O"/>
    <contour>
      <point x="404" y="50" type="line" smooth="yes"/>
      <point x="386" y="-33"/>
      <point x="451" y="-61"/>
      <point x="581" y="-61" type="curve"/>
      <point x="562" y="-108" type="line"/>
      <point x="388" y="-108"/>
      <point x="323" y="-62"/>
      <point x="347" y="51" type="curve" smooth="yes"/>
      <point x="373" y="174" type="line"/>
      <point x="430" y="174" type="line"/>
    </contour>
  </outline>
</glyph>
<glyph name="S" format="2">
  <advance width="765"/>
  <unicode hex="0053"/>
  <outline>
    <contour>
      <point x="757" y="622" type="line"/>
      <point x="700" y="644"/>
      <point x="621" y="655"/>
      <point x="550" y="655" type="curve" smooth="yes"/>
      <point x="442" y="655"/>
      <point x="270" y="630"/>
      <point x="251" y="543" type="curve" smooth="yes"/>
      <point x="219" y="390"/>
      <point x="821" y="415"/>
      <point x="772" y="183" type="curve" smooth="yes"/>
      <point x="742" y="43"/>
      <point x="553" y="-13"/>
      <point x="375" y="-13" type="curve" smooth="yes"/>
      <point x="226" y="-13"/>
      <point x="119" y="20"/>
      <point x="42" y="92" type="curve"/>
      <point x="86" y="129" type="line"/>
      <point x="147" y="74"/>
      <point x="259" y="42"/>
      <point x="381" y="42" type="curve" smooth="yes"/>
      <point x="522" y="42"/>
      <point x="683" y="76"/>
      <point x="705" y="181" type="curve" smooth="yes"/>
      <point x="742" y="355"/>
      <point x="144" y="328"/>
      <point x="188" y="538" type="curve" smooth="yes"/>
      <point x="215" y="664"/>
      <point x="398" y="709"/>
      <point x="561" y="709" type="curve" smooth="yes"/>
      <point x="640" y="709"/>
      <point x="717" y="697"/>
      <point x="783" y="672" type="curve"/>
    </contour>
  </outline>
  <guideline angle="90" x="57.4784" y="0"/>
  <guideline angle="0" x="0" y="586"/>
</glyph>
<glyph name="U" format="1">
  <advance width="707" height="962"/>
  <unicode hex="0055"/>
  <outline>
    <contour>
      <point x="708" y="186" type="line" smooth="yes"/>
      <point x="680" y="58"/>
      <point x="537" y="-11"/>
      <point x="353" y="-11" type="curve" smooth="yes"/>
      <point x="165" y="-11"/>
      <point x="50" y="56"/>
      <point x="78" y="186" type="curve" smooth="yes"/>
      <point x="187" y="700" type="line"/>
      <point x="245" y="700" type="line"/>
      <point x="136" y="187" type="line" smooth="yes"/>
      <point x="115" y="91"/>
      <point x="224" y="42"/>
      <point x="362" y="42" type="curve" smooth="yes"/>
      <point x="500" y="42"/>
      <point x="630" y="90"/>
      <point x="651" y="187" type="curve" smooth="yes"/>
      <point x="760" y="700" type="line"/>
      <point x="817" y="700" type="line"/>
    </contour>
  </outline>
</glyph>
<glyph name="V" format="2">
  <advance width="749"/>
  <unicode hex="0056"/>
  <outline>
    <contour>
      <point x="162" y="700" type="line"/>
      <point x="222" y="700" type="line"/>
      <point x="385" y="67" type="line"/>
      <point x="820" y="700" type="line"/>
      <point x="879" y="700" type="line"/>
      <point x="400" y="0" type="line"/>
      <point x="344" y="0" type="line"/>
    </contour>
  </outline>
</glyph>
<glyph name="X" format="2">
  <advance width="808" height="962"/>
  <unicode hex="0058"/>
  <outline>
    <contour>
      <point x="485.809" y="401.669" type="line"/>
      <point x="829" y="700" type="line"/>
      <point x="906" y="700" type="line"/>
      <point x="518" y="362" type="line"/>
      <point x="783" y="0" type="line"/>
      <point x="715" y="0" type="line"/>
      <point x="477" y="325" type="line"/>
      <point x="103" y="0" type="line"/>
      <point x="25" y="0" type="line"/>
      <point x="446.916" y="370.324" type="line"/>
      <point x="201" y="700" type="line"/>
      <point x="265.055" y="700" type="line"/>
    </contour>
  </outline>
</glyph>
<glyph name="bracketleft" format="2">
  <advance width="335" height="962"/>
  <unicode hex="005B"/>
  <outline>
    <contour>
      <point x="311" y="762" type="line"/>
      <point x="136" y="-59" type="line"/>
      <point x="291" y="-69" type="line"/>
      <point x="282" y="-114" type="line"/>
      <point x="39" y="-114" type="line"/>
      <point x="237" y="818" type="line"/>
      <point x="480" y="818" type="line"/>
      <point x="470" y="772" type="line"/>
    </contour>
  </outline>
</glyph>
<glyph name="backslash" format="1">
  <advance width="621" height="962"/>
  <unicode hex="005C"/>
  <outline>
    <contour>
      <point x="480" y="-114" type="line"/>
      <point x="198" y="818" type="line"/>
      <point x="282" y="818" type="line"/>
      <point x="572" y="-114" type="line"/>
    </contour>
  </outline>
</glyph>
<glyph name="bracketright" format="2">
  <advance width="338" height="962"/>
  <unicode hex="005D"/>
  <outline>
    <contour>
      <point x="6" y="-114" type="line"/>
      <point x="15" y="-69" type="line"/>
      <point x="176" y="-59" type="line"/>
      <point x="351" y="762" type="line"/>
      <point x="194" y="772" type="line"/>
      <point x="204" y="818" type="line"/>
      <point x="447" y="818" type="line"/>
      <point x="249" y="-114" type="line"/>
    </contour>
  </outline>
</glyph>
<glyph name="asciicircum" format="2">
  <advance width="267" height="962"/>
  <unicode hex="005E"/>
  <outline>
    <contour>
      <point x="428" y="772" type="line"/>
      <point x="381" y="735" type="line"/>
      <point x="311" y="824" type="line"/>
      <point x="198" y="732" type="line"/>
      <point x="167" y="771" type="line"/>
      <point x="327" y="900" type="line"/>
    </contour>
  </outline>
</glyph>
<glyph name="a" format="2">
  <advance width="641" height="962"/>
  <unicode hex="0061"/>
  <outline>
    <contour>
      <point x="622" y="351" type="curve"/>
      <point x="643" y="450"/>
      <point x="509" y="466"/>
      <point x="388" y="466" type="curve"/>
      <point x="400" y="509" type="line"/>
      <point x="643" y="509"/>
      <point x="704" y="469"/>
      <point x="669" y="308" type="curve" smooth="yes"/>
      <point x="604" y="0" type="line"/>
      <point x="607" y="0"/>
      <point x="438" y="-9"/>
      <point x="365" y="-10" type="curve" smooth="yes"/>
      <point x="172" y="-14"/>
      <point x="26" y="1"/>
      <point x="60" y="159" type="curve" smooth="yes"/>
      <point x="80" y="256" type="line" smooth="yes"/>
      <point x="106" y="378"/>
      <point x="223" y="403"/>
      <point x="343" y="403" type="curve" smooth="yes"/>
      <point x="441" y="403"/>
      <point x="558" y="378"/>
    </contour>
    <contour>
      <point x="612" y="304" type="line"/>
      <point x="538" y="332"/>
      <point x="419" y="355"/>
      <point x="325" y="355" type="curve" smooth="yes"/>
      <point x="272" y="355"/>
      <point x="157" y="355"/>
      <point x="136" y="254" type="curve" smooth="yes"/>
      <point x="117" y="166" type="line" smooth="yes"/>
      <point x="95" y="60"/>
      <point x="167" y="32"/>
      <point x="369" y="38" type="curve" smooth="yes"/>
      <point x="469" y="41"/>
      <point x="557" y="47"/>
      <point x="557" y="46" type="curve"/>
    </contour>
  </outline>
</glyph>
<glyph name="c" format="2">
  <advance width="540"/>
  <unicode hex="0063"/>
  <outline>
    <contour>
      <point x="585" y="433" type="line"/>
      <point x="535" y="449"/>
      <point x="467" y="459"/>
      <point x="409" y="459" type="curve" smooth="yes"/>
      <point x="268" y="459"/>
      <point x="172" y="416"/>
      <point x="150" y="311" type="curve" smooth="yes"/>
      <point x="124" y="186" type="line" smooth="yes"/>
      <point x="98" y="64"/>
      <point x="182" y="41"/>
      <point x="326" y="41" type="curve" smooth="yes"/>
      <point x="424" y="41"/>
      <point x="515" y="56"/>
      <point x="512" y="55" type="curve"/>
      <point x="513" y="5" type="line"/>
      <point x="449" y="-6"/>
      <point x="377" y="-12"/>
      <point x="312" y="-11" type="curve" smooth="yes"/>
      <point x="139" y="-9"/>
      <point x="34" y="27"/>
      <point x="65" y="174" type="curve" smooth="yes"/>
      <point x="96" y="319" type="line" smooth="yes"/>
      <point x="124" y="452"/>
      <point x="230" y="510"/>
      <point x="416" y="510" type="curve" smooth="yes"/>
      <point x="483" y="510"/>
      <point x="552" y="497"/>
      <point x="611" y="478" type="curve"/>
    </contour>
  </outline>
</glyph>
<glyph name="f" format="1">
  <advance width="374" height="962"/>
  <unicode hex="0066"/>
  <outline>
    <contour>
      <point x="443" y="658" type="line"/>
      <point x="428" y="660"/>
      <point x="396" y="660"/>
      <point x="384" y="660" type="curve" smooth="yes"/>
      <point x="292" y="660"/>
      <point x="232" y="643"/>
      <point x="214" y="560" type="curve" smooth="yes"/>
      <point x="201" y="500" type="line"/>
      <point x="401" y="500" type="line"/>
      <point x="366" y="447" type="line"/>
      <point x="190" y="447" type="line"/>
      <point x="95" y="0" type="line"/>
      <point x="39" y="0" type="line"/>
      <point x="158" y="560" type="line" smooth="yes"/>
      <point x="186" y="690"/>
      <point x="296" y="710"/>
      <point x="393" y="710" type="curve" smooth="yes"/>
      <point x="413" y="710"/>
      <point x="451" y="710"/>
      <point x="466" y="707" type="curve"/>
    </contour>
  </outline>
</glyph>
<glyph name="i" format="2">
  <advance width="133" height="962"/>
  <unicode hex="0069"/>
  <outline>
    <contour>
      <point x="38" y="0" type="line"/>
      <point x="144" y="501" type="line"/>
      <point x="201" y="501" type="line"/>
      <point x="95" y="0" type="line"/>
    </contour>
    <contour>
      <point x="218" y="710" type="curve" smooth="yes"/>
      <point x="236" y="710"/>
      <point x="249" y="695"/>
      <point x="245" y="676" type="curve" smooth="yes"/>
      <point x="241" y="659"/>
      <point x="222" y="643"/>
      <point x="204" y="643" type="curve" smooth="yes"/>
      <point x="186" y="643"/>
      <point x="173" y="659"/>
      <point x="177" y="676" type="curve" smooth="yes"/>
      <point x="181" y="695"/>
      <point x="200" y="710"/>
    </contour>
  </outline>
</glyph>
<glyph name="j" format="2">
  <advance width="245" height="962"/>
  <unicode hex="006A"/>
  <outline>
    <contour>
      <point x="185" y="-63" type="line" smooth="yes"/>
      <point x="167" y="-145"/>
      <point x="119" y="-185"/>
      <point x="-1" y="-210" type="curve"/>
      <point x="-9" y="-167" type="line"/>
      <point x="64" y="-150"/>
      <point x="117" y="-110"/>
      <point x="127" y="-62" type="curve" smooth="yes"/>
      <point x="235" y="449" type="line"/>
      <point x="124" y="449" type="line"/>
      <point x="135" y="501" type="line"/>
      <point x="304" y="501" type="line"/>
    </contour>
    <contour>
      <point x="347" y="676" type="curve" smooth="yes"/>
      <point x="343" y="659"/>
      <point x="324" y="643"/>
      <point x="306" y="643" type="curve" smooth="yes"/>
      <point x="288" y="643"/>
      <point x="274" y="659"/>
      <point x="278" y="676" type="curve" smooth="yes"/>
      <point x="282" y="695"/>
      <point x="302" y="709"/>
      <point x="320" y="709" type="curve" smooth="yes"/>
      <point x="338" y="709"/>
      <point x="351" y="695"/>
    </contour>
  </outline>
</glyph>
<glyph name="k" format="2">
  <advance width="611"/>
  <unicode hex="006B"/>
  <outline>
    <contour>
      <point x="332" y="361" type="line"/>
      <point x="591" y="0" type="line"/>
      <point x="511" y="0" type="line"/>
      <point x="275" y="332" type="line"/>
      <point x="156" y="273" type="line"/>
      <point x="98" y="0" type="line"/>
      <point x="41" y="0" type="line"/>
      <point x="190" y="700" type="line"/>
      <point x="247" y="700" type="line"/>
      <point x="169" y="335" type="line"/>
      <point x="540" y="522" type="line"/>
      <point x="563" y="475" type="line"/>
    </contour>
  </outline>
</glyph>
<glyph name="m" format="2">
  <advance width="1040"/>
  <unicode hex="006D"/>
  <outline>
    <contour>
      <point x="1020" y="352" type="line" smooth="yes"/>
      <point x="1041" y="453"/>
      <point x="945" y="459"/>
      <point x="851" y="459" type="curve" smooth="yes"/>
      <point x="792" y="459"/>
      <point x="710" y="448"/>
      <point x="628" y="418" type="curve"/>
      <point x="633" y="397"/>
      <point x="633" y="372"/>
      <point x="627" y="344" type="curve" smooth="yes"/>
      <point x="554" y="0" type="line"/>
      <point x="497" y="0" type="line"/>
      <point x="570" y="342" type="line" smooth="yes"/>
      <point x="591" y="443"/>
      <point x="497" y="459"/>
      <point x="401" y="459" type="curve" smooth="yes"/>
      <point x="332" y="459"/>
      <point x="254" y="447"/>
      <point x="188" y="423" type="curve"/>
      <point x="98" y="0" type="line"/>
      <point x="39" y="0" type="line"/>
      <point x="145" y="500" type="line"/>
      <point x="204" y="500" type="line"/>
      <point x="197" y="466" type="line"/>
      <point x="263" y="492"/>
      <point x="351" y="509"/>
      <point x="426" y="509" type="curve" smooth="yes"/>
      <point x="521" y="509"/>
      <point x="577" y="489"/>
      <point x="610" y="453" type="curve"/>
      <point x="681" y="486"/>
      <point x="792" y="509"/>
      <point x="876" y="509" type="curve" smooth="yes"/>
      <point x="1042" y="509"/>
      <point x="1104" y="471"/>
      <point x="1079" y="354" type="curve" smooth="yes"/>
      <point x="1004" y="0" type="line"/>
      <point x="945" y="0" type="line"/>
    </contour>
  </outline>
</glyph>
<glyph name="n" format="1">
  <advance width="629" height="962"/>
  <unicode hex="006E"/>
  <outline>
    <contour>
      <point x="608" y="339" type="line" smooth="yes"/>
      <point x="631" y="448"/>
      <point x="508" y="460"/>
      <point x="412" y="460" type="curve" smooth="yes"/>
      <point x="343" y="460"/>
      <point x="251" y="448"/>
      <point x="185" y="425" type="curve"/>
      <point x="95" y="0" type="line"/>
      <point x="38" y="0" type="line"/>
      <point x="144" y="501" type="line"/>
      <point x="201" y="501" type="line"/>
      <point x="194" y="467" type="line"/>
      <point x="257" y="493"/>
      <point x="364" y="510"/>
      <point x="439" y="510" type="curve" smooth="yes"/>
      <point x="605" y="510"/>
      <point x="691" y="466"/>
      <point x="665" y="342" type="curve" smooth="yes"/>
      <point x="592" y="0" type="line"/>
      <point x="536" y="0" type="line"/>
    </contour>
  </outline>
</glyph>
<glyph name="q" format="2">
  <advance width="622"/>
  <unicode hex="0071"/>
  <outline>
    <contour>
      <point x="538" y="62" type="line"/>
      <point x="496" y="21"/>
      <point x="375" y="-11"/>
      <point x="285" y="-11" type="curve" smooth="yes"/>
      <point x="117" y="-11"/>
      <point x="36" y="35"/>
      <point x="64" y="167" type="curve" smooth="yes"/>
      <point x="105" y="356" type="line" smooth="yes"/>
      <point x="130" y="473"/>
      <point x="230" y="516"/>
      <point x="394" y="511" type="curve" smooth="yes"/>
      <point x="465" y="509"/>
      <point x="563" y="490"/>
      <point x="622" y="454" type="curve"/>
      <point x="631" y="500" type="line"/>
      <point x="689" y="500" type="line"/>
      <point x="538" y="-212" type="line"/>
      <point x="485" y="-189" type="line"/>
    </contour>
    <contour>
      <point x="609" y="394" type="line"/>
      <point x="576" y="436"/>
      <point x="465" y="458"/>
      <point x="401" y="461" type="curve" smooth="yes"/>
      <point x="309" y="466"/>
      <point x="185" y="461"/>
      <point x="162" y="354" type="curve" smooth="yes"/>
      <point x="121" y="158" type="line" smooth="yes"/>
      <point x="101" y="65"/>
      <point x="186" y="41"/>
      <point x="300" y="41" type="curve" smooth="yes"/>
      <point x="416" y="41"/>
      <point x="544" y="88"/>
      <point x="562" y="174" type="curve" smooth="yes"/>
    </contour>
  </outline>
</glyph>
<glyph name="s" format="2">
  <advance width="600"/>
  <unicode hex="0073"/>
  <anchor x="325" y="587" name="top"/>
  <outline>
    <contour>
      <point x="582" y="437" type="line"/>
      <point x="545" y="453"/>
      <point x="474" y="465"/>
      <point x="425" y="465" type="curve" smooth="yes"/>
      <point x="344" y="465"/>
      <point x="218" y="456"/>
      <point x="204" y="392" type="curve" smooth="yes"/>
      <point x="181" y="283"/>
      <point x="633" y="299"/>
      <point x="596" y="128" type="curve" smooth="yes"/>
      <point x="575" y="28"/>
      <point x="437" y="-18"/>
      <point x="305" y="-18" type="curve" smooth="yes"/>
      <point x="199" y="-18"/>
      <point x="99" y="15"/>
      <point x="41" y="68" type="curve"/>
      <point x="79" y="103" type="line"/>
      <point x="136" y="58"/>
      <point x="223" y="34"/>
      <point x="316" y="34" type="curve" smooth="yes"/>
      <point x="403" y="34"/>
      <point x="523" y="61"/>
      <point x="536" y="123" type="curve" smooth="yes"/>
      <point x="563" y="251"/>
      <point x="115" y="233"/>
      <point x="147" y="388" type="curve" smooth="yes"/>
      <point x="167" y="482"/>
      <point x="294" y="512"/>
      <point x="418" y="512" type="curve" smooth="yes"/>
      <point x="478" y="512"/>
      <point x="542" y="506"/>
      <point x="608" y="477" type="curve"/>
    </contour>
  </outline>
  <guideline angle="90" x="-349.835" y="0"/>
  <guideline angle="0" x="0" y="345"/>
</glyph>
<glyph name="t" format="2">
  <advance width="328" height="962"/>
  <unicode hex="0074"/>
  <outline>
    <contour>
      <point x="122" y="123" type="line" smooth="yes"/>
      <point x="107" y="50"/>
      <point x="163" y="33"/>
      <point x="228" y="30" type="curve"/>
      <point x="204" y="-13" type="line"/>
      <point x="95" y="-11"/>
      <point x="46" y="34"/>
      <point x="67" y="132" type="curve" smooth="yes"/>
      <point x="188" y="700" type="line"/>
      <point x="245" y="700" type="line"/>
      <point x="202" y="500" type="line"/>
      <point x="409" y="500" type="line"/>
      <point x="372" y="448" type="line"/>
      <point x="191" y="448" type="line"/>
    </contour>
  </outline>
</glyph>
<glyph name="w" format="1">
  <advance width="1049" height="962"/>
  <unicode hex="0077"/>
  <outline>
    <contour>
      <point x="657" y="499" type="line"/>
      <point x="772" y="57" type="line"/>
      <point x="1068" y="499" type="line"/>
      <point x="1130" y="499" type="line"/>
      <point x="792" y="0" type="line"/>
      <point x="732" y="0" type="line"/>
      <point x="613" y="435" type="line"/>
      <point x="309" y="0" type="line"/>
      <point x="250" y="0" type="line"/>
      <point x="124" y="499" type="line"/>
      <point x="186" y="499" type="line"/>
      <point x="294" y="57" type="line"/>
      <point x="600" y="499" type="line"/>
    </contour>
  </outline>
</glyph>
<glyph name="y" format="2">
  <advance width="654"/>
  <unicode hex="0079"/>
  <outline>
    <contour>
      <point x="732" y="470" type="line"/>
      <point x="706" y="462"/>
      <point x="685" y="450"/>
      <point x="676" y="408" type="curve" smooth="yes"/>
      <point x="576" y="-62" type="line" smooth="yes"/>
      <point x="557" y="-151"/>
      <point x="505" y="-187"/>
      <point x="387" y="-209" type="curve"/>
      <point x="376" y="-166" type="line"/>
      <point x="454" y="-147"/>
      <point x="506" y="-121"/>
      <point x="519" y="-61" type="curve" smooth="yes"/>
      <point x="546" y="67" type="line"/>
      <point x="482" y="11"/>
      <point x="369" y="-9"/>
      <point x="294" y="-9" type="curve" smooth="yes"/>
      <point x="128" y="-9"/>
      <point x="39" y="24"/>
      <point x="65" y="148" type="curve" smooth="yes"/>
      <point x="140" y="501" type="line"/>
      <point x="197" y="501" type="line"/>
      <point x="124" y="156" type="line" smooth="yes"/>
      <point x="100" y="43"/>
      <point x="213" y="44"/>
      <point x="316" y="44" type="curve" smooth="yes"/>
      <point x="423" y="44"/>
      <point x="554" y="104"/>
      <point x="569" y="174" type="curve" smooth="yes"/>
      <point x="619" y="409" type="line" smooth="yes"/>
      <point x="629" y="455"/>
      <point x="647" y="496"/>
      <point x="717" y="512" type="curve"/>
    </contour>
  </outline>
</glyph>
<glyph name="braceleft" format="2">
  <advance width="387"/>
  <unicode hex="007B"/>
  <outline>
    <contour>
      <point x="355" y="517" type="line" smooth="yes"/>
      <point x="349" y="489"/>
      <point x="337" y="461"/>
      <point x="322" y="433" type="curve"/>
      <point x="305" y="406"/>
      <point x="272" y="379"/>
      <point x="219" y="353" type="curve"/>
      <point x="261" y="327"/>
      <point x="283" y="301"/>
      <point x="288" y="273" type="curve"/>
      <point x="291" y="245"/>
      <point x="291" y="218"/>
      <point x="285" y="190" type="curve" smooth="yes"/>
      <point x="261" y="76" type="line" smooth="yes"/>
      <point x="242" y="-13"/>
      <point x="301" y="-52"/>
      <point x="345" y="-67" type="curve"/>
      <point x="299" y="-118" type="line"/>
      <point x="293" y="-115"/>
      <point x="141" y="-84"/>
      <point x="175" y="76" type="curve" smooth="yes"/>
      <point x="199" y="190" type="line" smooth="yes"/>
      <point x="205" y="218"/>
      <point x="205" y="244"/>
      <point x="200" y="270" type="curve"/>
      <point x="194" y="296"/>
      <point x="170" y="321"/>
      <point x="127" y="345" type="curve" smooth="yes"/>
      <point x="113" y="353" type="line"/>
      <point x="131" y="361" type="line" smooth="yes"/>
      <point x="184" y="385"/>
      <point x="218" y="410"/>
      <point x="236" y="436" type="curve"/>
      <point x="251" y="462"/>
      <point x="263" y="489"/>
      <point x="269" y="517" type="curve" smooth="yes"/>
      <point x="293" y="630" type="line" smooth="yes"/>
      <point x="327" y="792"/>
      <point x="494" y="820"/>
      <point x="499" y="823" type="curve"/>
      <point x="522" y="774" type="line"/>
      <point x="475" y="758"/>
      <point x="398" y="720"/>
      <point x="379" y="630" type="curve" smooth="yes"/>
    </contour>
  </outline>
</glyph>
<glyph name="bar" format="2">
  <advance width="212" height="962"/>
  <unicode hex="007C"/>
  <outline>
    <contour>
      <point x="39" y="-114" type="line"/>
      <point x="237" y="818" type="line"/>
      <point x="321" y="818" type="line"/>
      <point x="123" y="-114" type="line"/>
    </contour>
  </outline>
</glyph>
<glyph name="exclamdown" format="2">
  <advance width="148"/>
  <unicode hex="00A1"/>
  <outline>
    <contour>
      <point x="115" y="36" type="line"/>
      <point x="110" y="12"/>
      <point x="96" y="0"/>
      <point x="73" y="0" type="curve" smooth="yes"/>
      <point x="52" y="0"/>
      <point x="43" y="12"/>
      <point x="48" y="37" type="curve"/>
      <point x="175" y="590" type="line"/>
      <point x="223" y="590" type="line"/>
    </contour>
    <contour>
      <point x="251" y="676" type="curve" smooth="yes"/>
      <point x="247" y="659"/>
      <point x="229" y="643"/>
      <point x="210" y="643" type="curve" smooth="yes"/>
      <point x="192" y="643"/>
      <point x="179" y="659"/>
      <point x="183" y="676" type="curve" smooth="yes"/>
      <point x="187" y="695"/>
      <point x="206" y="709"/>
      <point x="224" y="709" type="curve" smooth="yes"/>
      <point x="243" y="709"/>
      <point x="255" y="695"/>
    </contour>
  </outline>
</glyph>
<glyph name="cent" format="2">
  <advance width="540" height="962"/>
  <unicode hex="00A2"/>
  <outline>
    <component base="c"/>
    <contour>
      <point x="239" y="-114" type="line"/>
      <point x="395" y="623" type="line"/>
      <point x="452" y="623" type="line"/>
      <point x="296" y="-114" type="line"/>
    </contour>
  </outline>
</glyph>
<glyph name="copyright" format="2">
  <advance width="1009" height="962"/>
  <unicode hex="00A9"/>
  <outline>
    <contour>
      <point x="1017" y="178" type="line" smooth="yes"/>
      <point x="980" y="6"/>
      <point x="766" y="-69"/>
      <point x="489" y="-69" type="curve" smooth="yes"/>
      <point x="214" y="-69"/>
      <point x="31" y="6"/>
      <point x="68" y="178" type="curve" smooth="yes"/>
      <point x="101" y="333" type="line" smooth="yes"/>
      <point x="137" y="503"/>
      <point x="345" y="584"/>
      <point x="628" y="584" type="curve" smooth="yes"/>
      <point x="905" y="584"/>
      <point x="1085" y="497"/>
      <point x="1049" y="327" type="curve" smooth="yes"/>
    </contour>
    <contour>
      <point x="987" y="304" type="line" smooth="yes"/>
      <point x="1022" y="469"/>
      <point x="881" y="530"/>
      <point x="617" y="530" type="curve" smooth="yes"/>
      <point x="354" y="530"/>
      <point x="191" y="478"/>
      <point x="156" y="315" type="curve" smooth="yes"/>
      <point x="130" y="193" type="line" smooth="yes"/>
      <point x="98" y="40"/>
      <point x="238" y="-15"/>
      <point x="501" y="-15" type="curve" smooth="yes"/>
      <point x="765" y="-15"/>
      <point x="930" y="38"/>
      <point x="964" y="199" type="curve" smooth="yes"/>
    </contour>
    <contour>
      <point x="806" y="384" type="line"/>
      <point x="755" y="398"/>
      <point x="677" y="405"/>
      <point x="626" y="405" type="curve" smooth="yes"/>
      <point x="549.281" y="405"/>
      <point x="483.458" y="399.008"/>
      <point x="434.5" y="376.22" type="curve" smooth="yes"/>
      <point x="389.649" y="355.344"/>
      <point x="358.953" y="320.373"/>
      <point x="347" y="263" type="curve" smooth="yes"/>
      <point x="333.676" y="199.71"/>
      <point x="351.482" y="159.228"/>
      <point x="395.798" y="135.737" type="curve" smooth="yes"/>
      <point x="431.305" y="116.915"/>
      <point x="483.831" y="109"/>
      <point x="551" y="109" type="curve" smooth="yes"/>
      <point x="611" y="109"/>
      <point x="701" y="116"/>
      <point x="790" y="135" type="curve"/>
      <point x="794" y="91" type="line"/>
      <point x="706" y="69"/>
      <point x="621" y="58"/>
      <point x="543" y="58" type="curve" smooth="yes"/>
      <point x="460.24" y="58"/>
      <point x="395.313" y="68.7374"/>
      <point x="351.071" y="92.899" type="curve" smooth="yes"/>
      <point x="294.278" y="123.916"/>
      <point x="271.574" y="177.055"/>
      <point x="289" y="258" type="curve" smooth="yes"/>
      <point x="303.244" y="326.373"/>
      <point x="336.426" y="374.23"/>
      <point x="387.368" y="405.64" type="curve" smooth="yes"/>
      <point x="443.715" y="440.381"/>
      <point x="521.79" y="455"/>
      <point x="620" y="455" type="curve" smooth="yes"/>
      <point x="697" y="455"/>
      <point x="769" y="444"/>
      <point x="827" y="421" type="curve"/>
    </contour>
  </outline>
</glyph>
<glyph name="guillemotleft" format="2">
  <advance width="769"/>
  <unicode hex="00AB"/>
  <outline>
    <contour>
      <point x="538.753" y="263" type="line"/>
      <point x="797.636" y="414" type="line"/>
      <point x="762.713" y="459" type="line"/>
      <point x="433.753" y="267" type="line"/>
      <point x="682.792" y="72" type="line"/>
      <point x="725.231" y="113" type="line"/>
    </contour>
    <contour>
      <point x="210.753" y="263" type="line"/>
      <point x="467.636" y="414" type="line"/>
      <point x="431.713" y="459" type="line"/>
      <point x="103.753" y="267" type="line"/>
      <point x="351.792" y="72" type="line"/>
      <point x="395.231" y="113" type="line"/>
    </contour>
  </outline>
</glyph>
<glyph name="plusminus" format="1">
  <advance width="575" height="962"/>
  <unicode hex="00B1"/>
  <outline>
    <contour>
      <point x="127" y="378" type="line"/>
      <point x="139" y="432" type="line"/>
      <point x="340" y="432" type="line"/>
      <point x="368" y="565" type="line"/>
      <point x="450" y="565" type="line"/>
      <point x="422" y="432" type="line"/>
      <point x="619" y="432" type="line"/>
      <point x="607" y="378" type="line"/>
      <point x="410" y="378" type="line"/>
      <point x="383" y="247" type="line"/>
      <point x="578" y="247" type="line"/>
      <point x="565" y="190" type="line"/>
      <point x="85" y="190" type="line"/>
      <point x="98" y="247" type="line"/>
      <point x="301" y="247" type="line"/>
      <point x="328" y="378" type="line"/>
    </contour>
  </outline>
</glyph>
<glyph name="ordmasculine" format="2">
	<advance width="483"/>
	<unicode hex="00BA"/>
	<outline>
		<contour>
			<point x="547" y="496" type="line" smooth="yes"/>
			<point x="530" y="416"/>
			<point x="456" y="379"/>
			<point x="323" y="379" type="curve" smooth="yes"/>
			<point x="187" y="379"/>
			<point x="126" y="421"/>
			<point x="142" y="496" type="curve" smooth="yes"/>
			<point x="162" y="591" type="line" smooth="yes"/>
			<point x="180" y="678"/>
			<point x="261" y="710"/>
			<point x="391" y="710" type="curve" smooth="yes"/>
			<point x="521" y="710"/>
			<point x="585" y="676"/>
			<point x="567" y="592" type="curve" smooth="yes"/>
		</contour>
		<contour>
			<point x="511" y="584" type="line" smooth="yes"/>
			<point x="524" y="641"/>
			<point x="471" y="660"/>
			<point x="383" y="660" type="curve" smooth="yes"/>
			<point x="294" y="660"/>
			<point x="226" y="640"/>
			<point x="214" y="584" type="curve" smooth="yes"/>
			<point x="196" y="499" type="line" smooth="yes"/>
			<point x="186" y="451"/>
			<point x="252" y="429"/>
			<point x="333" y="429" type="curve" smooth="yes"/>
			<point x="417" y="429"/>
			<point x="483" y="450"/>
			<point x="493" y="499" type="curve" smooth="yes"/>
		</contour>
	</outline>
</glyph>
<glyph name="questiondown" format="2">
  <advance width="581"/>
  <unicode hex="00BF"/>
  <outline>
    <contour>
      <point x="587" y="168" type="line"/>
      <point x="561" y="46"/>
      <point x="413" y="-9"/>
      <point x="281" y="-9" type="curve" smooth="yes"/>
      <point x="149" y="-9"/>
      <point x="36" y="53"/>
      <point x="59" y="162" type="curve" smooth="yes"/>
      <point x="76" y="240"/>
      <point x="157" y="293"/>
      <point x="232" y="336" type="curve" smooth="yes"/>
      <point x="304" y="377"/>
      <point x="361" y="410"/>
      <point x="379" y="493" type="curve" smooth="yes"/>
      <point x="397" y="580" type="line"/>
      <point x="452" y="580" type="line"/>
      <point x="433" y="488" type="line" smooth="yes"/>
      <point x="414" y="399"/>
      <point x="359" y="355"/>
      <point x="290" y="313" type="curve" smooth="yes"/>
      <point x="222" y="272"/>
      <point x="132" y="231"/>
      <point x="118" y="165" type="curve" smooth="yes"/>
      <point x="100" y="78"/>
      <point x="198" y="44"/>
      <point x="292" y="44" type="curve" smooth="yes"/>
      <point x="392" y="44"/>
      <point x="509" y="72"/>
      <point x="530" y="168" type="curve"/>
    </contour>
    <contour>
      <point x="451" y="709" type="curve" smooth="yes"/>
      <point x="470" y="709"/>
      <point x="483" y="694"/>
      <point x="479" y="676" type="curve" smooth="yes"/>
      <point x="475" y="657"/>
      <point x="456" y="643"/>
      <point x="437" y="643" type="curve" smooth="yes"/>
      <point x="420" y="643"/>
      <point x="407" y="657"/>
      <point x="411" y="676" type="curve" smooth="yes"/>
      <point x="415" y="694"/>
      <point x="434" y="709"/>
    </contour>
  </outline>
</glyph>
<glyph name="AE" format="2">
  <advance width="1096"/>
  <unicode hex="00C6"/>
  <outline>
    <contour>
      <point x="575" y="0" type="line"/>
      <point x="627" y="244" type="line"/>
      <point x="273" y="244" type="line"/>
      <point x="79" y="0" type="line"/>
      <point x="16" y="0" type="line"/>
      <point x="573" y="700" type="line"/>
      <point x="1213" y="700" type="line"/>
      <point x="1202" y="647" type="line"/>
      <point x="767" y="647" type="line"/>
      <point x="717" y="414" type="line"/>
      <point x="1024" y="414" type="line"/>
      <point x="993" y="356" type="line"/>
      <point x="705" y="356" type="line"/>
      <point x="640" y="50" type="line"/>
      <point x="1075" y="50" type="line"/>
      <point x="1064" y="0" type="line"/>
    </contour>
    <contour>
      <point x="317" y="300" type="line"/>
      <point x="639" y="300" type="line"/>
      <point x="713" y="647" type="line"/>
      <point x="593" y="647" type="line"/>
    </contour>
  </outline>
</glyph>
<glyph name="Eth" format="2">
  <advance width="708"/>
  <unicode hex="00D0"/>
  <outline>
    <component base="D"/>
    <contour>
      <point x="144" y="357" type="line"/>
      <point x="156" y="412" type="line"/>
      <point x="499" y="412" type="line"/>
      <point x="470" y="357" type="line"/>
    </contour>
  </outline>
</glyph>
<glyph name="Oslash" format="1">
  <advance width="701" height="962"/>
  <unicode hex="00D8"/>
  <outline>
    <component base="O"/>
    <contour>
      <point x="62" y="-1" type="line"/>
      <point x="735" y="700" type="line"/>
      <point x="800" y="700" type="line"/>
      <point x="135" y="-1" type="line"/>
    </contour>
  </outline>
</glyph>
<glyph name="Thorn" format="2">
  <advance width="721" height="962"/>
  <unicode hex="00DE"/>
  <outline>
    <contour>
      <point x="521" y="611" type="line" smooth="yes"/>
      <point x="711" y="611"/>
      <point x="807" y="553"/>
      <point x="771" y="385" type="curve" smooth="yes"/>
      <point x="736" y="219"/>
      <point x="623" y="156"/>
      <point x="424" y="156" type="curve" smooth="yes"/>
      <point x="132" y="156" type="line"/>
      <point x="99" y="0" type="line"/>
      <point x="41" y="0" type="line"/>
      <point x="190" y="700" type="line"/>
      <point x="248" y="700" type="line"/>
      <point x="229" y="611" type="line"/>
    </contour>
    <contour>
      <point x="144" y="211" type="line"/>
      <point x="441" y="211" type="line" smooth="yes"/>
      <point x="565" y="211"/>
      <point x="681" y="232"/>
      <point x="714" y="385" type="curve" smooth="yes"/>
      <point x="744" y="526"/>
      <point x="642" y="558"/>
      <point x="515" y="558" type="curve" smooth="yes"/>
      <point x="218" y="558" type="line"/>
    </contour>
  </outline>
</glyph>
<glyph name="eth" format="2">
  <advance width="608"/>
  <unicode hex="00F0"/>
  <outline>
    <contour>
      <point x="592" y="653" type="curve"/>
      <point x="685" y="707" type="line"/>
      <point x="704" y="675" type="line"/>
      <point x="626" y="629" type="line"/>
      <point x="671" y="587"/>
      <point x="692" y="531"/>
      <point x="677" y="461" type="curve" smooth="yes"/>
      <point x="617" y="178" type="line" smooth="yes"/>
      <point x="588" y="41"/>
      <point x="477" y="-9"/>
      <point x="298" y="-9" type="curve" smooth="yes"/>
      <point x="120" y="-9"/>
      <point x="34" y="46"/>
      <point x="62" y="178" type="curve" smooth="yes"/>
      <point x="77" y="250" type="line" smooth="yes"/>
      <point x="105" y="381"/>
      <point x="204" y="434"/>
      <point x="371" y="434" type="curve" smooth="yes"/>
      <point x="474" y="434"/>
      <point x="576" y="400"/>
      <point x="602" y="357" type="curve"/>
      <point x="625" y="464" type="line" smooth="yes"/>
      <point x="638" y="525"/>
      <point x="613" y="568"/>
      <point x="575" y="599" type="curve"/>
      <point x="403" y="498" type="line"/>
      <point x="384" y="530" type="line"/>
      <point x="541" y="623" type="line"/>
      <point x="486" y="654"/>
      <point x="421" y="667"/>
      <point x="397" y="670" type="curve"/>
      <point x="416" y="701" type="line"/>
      <point x="489" y="695"/>
      <point x="548" y="679"/>
    </contour>
    <contour>
      <point x="305" y="43" type="curve" smooth="yes"/>
      <point x="437" y="43"/>
      <point x="541" y="70"/>
      <point x="564" y="178" type="curve" smooth="yes"/>
      <point x="579" y="249" type="line" smooth="yes"/>
      <point x="597" y="334"/>
      <point x="483" y="381"/>
      <point x="368" y="381" type="curve" smooth="yes"/>
      <point x="252" y="381"/>
      <point x="158" y="360"/>
      <point x="136" y="258" type="curve" smooth="yes"/>
      <point x="119" y="178" type="line" smooth="yes"/>
      <point x="96" y="70"/>
      <point x="179" y="43"/>
    </contour>
  </outline>
</glyph>
<glyph name="divide" format="2">
  <advance width="379" height="962"/>
  <unicode hex="00F7"/>
  <outline>
    <contour>
      <point x="104" y="356" type="line"/>
      <point x="115" y="410" type="line"/>
      <point x="435" y="410" type="line"/>
      <point x="424" y="356" type="line"/>
    </contour>
    <contour>
      <point x="305" y="546" type="curve" smooth="yes"/>
      <point x="323" y="546"/>
      <point x="336" y="530"/>
      <point x="332" y="512" type="curve" smooth="yes"/>
      <point x="328" y="494"/>
      <point x="309" y="479"/>
      <point x="291" y="479" type="curve" smooth="yes"/>
      <point x="272" y="479"/>
      <point x="261" y="494"/>
      <point x="265" y="512" type="curve" smooth="yes"/>
      <point x="269" y="530"/>
      <point x="286" y="546"/>
    </contour>
    <contour>
      <point x="250" y="288" type="curve" smooth="yes"/>
      <point x="268" y="288"/>
      <point x="281" y="274"/>
      <point x="277" y="255" type="curve" smooth="yes"/>
      <point x="273" y="236"/>
      <point x="254" y="222"/>
      <point x="236" y="222" type="curve" smooth="yes"/>
      <point x="217" y="222"/>
      <point x="206" y="236"/>
      <point x="210" y="255" type="curve" smooth="yes"/>
      <point x="214" y="274"/>
      <point x="231" y="288"/>
    </contour>
  </outline>
</glyph>
<glyph name="oslash" format="2">
  <advance width="613" height="962"/>
  <unicode hex="00F8"/>
  <outline>
    <component base="o"/>
    <contour>
      <point x="638" y="514" type="line"/>
      <point x="178" y="-20" type="line"/>
      <point x="113" y="-20" type="line"/>
      <point x="571" y="514" type="line"/>
    </contour>
  </outline>
</glyph>
<glyph name="Hbar" format="2">
  <advance width="720" height="962"/>
  <unicode hex="0126"/>
  <outline>
    <contour>
      <point x="114" y="500" type="line"/>
      <point x="126" y="556" type="line"/>
      <point x="834" y="556" type="line"/>
      <point x="822" y="500" type="line"/>
    </contour>
    <contour>
      <point x="712" y="412" type="line"/>
      <point x="773" y="700" type="line"/>
      <point x="827" y="700" type="line"/>
      <point x="678" y="0" type="line"/>
      <point x="624" y="0" type="line"/>
      <point x="700" y="357" type="line"/>
      <point x="174" y="357" type="line"/>
      <point x="98" y="0" type="line"/>
      <point x="41" y="0" type="line"/>
      <point x="190" y="700" type="line"/>
      <point x="247" y="700" type="line"/>
      <point x="186" y="412" type="line"/>
    </contour>
  </outline>
</glyph>
<glyph name="hbar" format="2">
  <advance width="630"/>
  <unicode hex="0127"/>
  <outline>
    <component base="h" xOffset="1"/>
    <contour>
      <point x="487" y="564" type="line"/>
      <point x="121" y="564" type="line"/>
      <point x="132" y="617" type="line"/>
      <point x="498" y="617" type="line"/>
    </contour>
  </outline>
</glyph>
<glyph name="Lslash" format="1">
  <advance width="715" height="962"/>
  <unicode hex="0141"/>
  <outline>
    <component base="L" xOffset="112.25"/>
    <contour>
      <point x="98" y="309" type="line"/>
      <point x="93" y="359" type="line"/>
      <point x="559" y="490" type="line"/>
      <point x="566" y="440" type="line"/>
    </contour>
  </outline>
</glyph>
<glyph name="lslash" format="2">
  <advance width="443" height="962"/>
  <unicode hex="0142"/>
  <outline>
    <component base="l" xOffset="148"/>
    <contour>
      <point x="510" y="489" type="line"/>
      <point x="517" y="439" type="line"/>
      <point x="101" y="308" type="line"/>
      <point x="96" y="357" type="line"/>
    </contour>
  </outline>
</glyph>
<glyph name="eng" format="2">
  <advance width="629" height="962"/>
  <unicode hex="014B"/>
  <outline>
    <contour>
      <point x="578" y="-65" type="line" smooth="yes"/>
      <point x="561" y="-145"/>
      <point x="507" y="-187"/>
      <point x="389" y="-211" type="curve"/>
      <point x="373" y="-168" type="line"/>
      <point x="447" y="-152"/>
      <point x="511" y="-112"/>
      <point x="521" y="-64" type="curve" smooth="yes"/>
      <point x="610" y="353" type="line" smooth="yes"/>
      <point x="632" y="457"/>
      <point x="511" y="460"/>
      <point x="415" y="460" type="curve" smooth="yes"/>
      <point x="336" y="460"/>
      <point x="247" y="445"/>
      <point x="185" y="425" type="curve"/>
      <point x="95" y="0" type="line"/>
      <point x="38" y="0" type="line"/>
      <point x="144" y="500" type="line"/>
      <point x="201" y="500" type="line"/>
      <point x="194" y="467" type="line"/>
      <point x="256" y="490"/>
      <point x="357" y="509"/>
      <point x="442" y="510" type="curve" smooth="yes"/>
      <point x="611" y="511"/>
      <point x="693" y="475"/>
      <point x="668" y="356" type="curve" smooth="yes"/>
    </contour>
  </outline>
</glyph>
<glyph name="dotlessj" format="1">
  <advance width="239" height="962"/>
  <unicode hex="0237"/>
  <outline>
    <contour>
      <point x="190" y="-53" type="line" smooth="yes"/>
      <point x="172" y="-135"/>
      <point x="127" y="-180"/>
      <point x="4" y="-210" type="curve"/>
      <point x="-10" y="-167" type="line"/>
      <point x="62" y="-149"/>
      <point x="120" y="-111"/>
      <point x="131" y="-62" type="curve" smooth="yes"/>
      <point x="239" y="449" type="line"/>
      <point x="123" y="449" type="line"/>
      <point x="134" y="501" type="line"/>
      <point x="307" y="501" type="line"/>
    </contour>
  </outline>
</glyph>
<glyph name="caron" format="2">
  <advance width="267"/>
  <unicode hex="02C7"/>
  <outline>
    <contour>
      <point x="416" y="717" type="line"/>
      <point x="257" y="589" type="line"/>
      <point x="155" y="715" type="line"/>
      <point x="202" y="753" type="line"/>
      <point x="273" y="665" type="line"/>
      <point x="385" y="754" type="line"/>
    </contour>
  </outline>
</glyph>
<glyph name="breve" format="2">
  <advance width="267" height="962"/>
  <unicode hex="02D8"/>
  <outline>
    <contour>
      <point x="396" y="704" type="line"/>
      <point x="394" y="697" type="line" smooth="yes"/>
      <point x="381" y="635"/>
      <point x="320" y="584"/>
      <point x="258" y="584" type="curve" smooth="yes"/>
      <point x="196" y="584"/>
      <point x="155" y="635"/>
      <point x="168" y="697" type="curve" smooth="yes"/>
      <point x="170" y="704" type="line"/>
      <point x="215" y="704" type="line"/>
      <point x="213" y="697" type="line" smooth="yes"/>
      <point x="205" y="660"/>
      <point x="230" y="629"/>
      <point x="268" y="629" type="curve" smooth="yes"/>
      <point x="306" y="629"/>
      <point x="341" y="660"/>
      <point x="349" y="697" type="curve" smooth="yes"/>
      <point x="351" y="704" type="line"/>
    </contour>
  </outline>
</glyph>
<glyph name="dotaccent" format="2">
  <advance width="267"/>
  <unicode hex="02D9"/>
  <outline>
    <contour>
      <point x="293" y="750" type="curve" smooth="yes"/>
      <point x="311" y="750"/>
      <point x="323" y="735"/>
      <point x="319" y="716" type="curve" smooth="yes"/>
      <point x="316" y="699"/>
      <point x="297" y="683"/>
      <point x="279" y="683" type="curve" smooth="yes"/>
      <point x="260" y="683"/>
      <point x="250" y="699"/>
      <point x="253" y="716" type="curve" smooth="yes"/>
      <point x="257" y="735"/>
      <point x="274" y="750"/>
    </contour>
  </outline>
</glyph>
<glyph name="ogonek" format="1">
  <advance width="267" height="962"/>
  <unicode hex="02DB"/>
  <outline>
    <contour>
      <point x="164" y="11" type="line"/>
      <point x="162" y="2" type="line"/>
      <point x="67" y="-113" type="line" smooth="yes"/>
      <point x="29" y="-158"/>
      <point x="50" y="-192"/>
      <point x="103" y="-175" type="curve" smooth="yes"/>
      <point x="162" y="-155"/>
      <point x="206" y="-141"/>
      <point x="207" y="-141" type="curve"/>
      <point x="217" y="-180" type="line"/>
      <point x="218" y="-180"/>
      <point x="123" y="-212"/>
      <point x="105" y="-217" type="curve" smooth="yes"/>
      <point x="10" y="-241"/>
      <point x="-27" y="-168"/>
      <point x="32" y="-99" type="curve" smooth="yes"/>
      <point x="119" y="3" type="line"/>
      <point x="120" y="11" type="line"/>
    </contour>
  </outline>
</glyph>
<glyph name="hungarumlaut" format="1">
  <advance width="267" height="962"/>
  <unicode hex="02DD"/>
  <outline>
    <contour>
      <point x="286" y="660" type="curve" smooth="yes"/>
      <point x="216" y="582" type="line"/>
      <point x="180" y="582" type="line"/>
      <point x="241" y="688" type="line" smooth="yes"/>
      <point x="252" y="707"/>
      <point x="274" y="718"/>
      <point x="289" y="708" type="curve" smooth="yes"/>
      <point x="305" y="698"/>
      <point x="301" y="676"/>
    </contour>
    <contour>
      <point x="397" y="660" type="curve" smooth="yes"/>
      <point x="328" y="582" type="line"/>
      <point x="293" y="582" type="line"/>
      <point x="352" y="688" type="line" smooth="yes"/>
      <point x="362" y="707"/>
      <point x="385" y="718"/>
      <point x="400" y="708" type="curve" smooth="yes"/>
      <point x="416" y="698"/>
      <point x="412" y="677"/>
    </contour>
  </outline>
</glyph>
<glyph name="macroncomb" format="2">
  <advance width="267" height="962"/>
  <unicode hex="0304"/>
  <outline>
    <contour>
      <point x="388" y="677" type="line"/>
      <point x="376" y="621" type="line"/>
      <point x="155" y="621" type="line"/>
      <point x="167" y="677" type="line"/>
    </contour>
  </outline>
</glyph>
<glyph name="hungarumlautcomb" format="2">
  <advance width="267"/>
  <unicode hex="030B"/>
  <outline>
    <contour>
      <point x="286" y="660" type="curve" smooth="yes"/>
      <point x="216" y="582" type="line"/>
      <point x="180" y="582" type="line"/>
      <point x="241" y="688" type="line" smooth="yes"/>
      <point x="252" y="707"/>
      <point x="274" y="718"/>
      <point x="289" y="708" type="curve" smooth="yes"/>
      <point x="305" y="698"/>
      <point x="301" y="676"/>
    </contour>
    <contour>
      <point x="397" y="660" type="curve" smooth="yes"/>
      <point x="328" y="582" type="line"/>
      <point x="293" y="582" type="line"/>
      <point x="352" y="688" type="line" smooth="yes"/>
      <point x="362" y="707"/>
      <point x="385" y="718"/>
      <point x="400" y="708" type="curve" smooth="yes"/>
      <point x="416" y="698"/>
      <point x="412" y="677"/>
    </contour>
  </outline>
</glyph>
<glyph name="Gamma" format="2">
  <advance width="549" height="962"/>
  <unicode hex="0393"/>
  <outline>
    <contour>
      <point x="41" y="0" type="line"/>
      <point x="190" y="700" type="line"/>
      <point x="691" y="700" type="line"/>
      <point x="680" y="647" type="line"/>
      <point x="236" y="647" type="line"/>
      <point x="98" y="0" type="line"/>
    </contour>
  </outline>
</glyph>
<glyph name="Xi" format="1">
  <advance width="820" height="962"/>
  <unicode hex="039E"/>
  <outline>
    <contour>
      <point x="149" y="595" type="line"/>
      <point x="198" y="670"/>
      <point x="262" y="700"/>
      <point x="381" y="700" type="curve" smooth="yes"/>
      <point x="898" y="700" type="line"/>
      <point x="866" y="650" type="line"/>
      <point x="350" y="650" type="line" smooth="yes"/>
      <point x="272" y="650"/>
      <point x="227" y="627"/>
      <point x="190" y="579" type="curve"/>
    </contour>
    <contour>
      <point x="677" y="307" type="line"/>
      <point x="278" y="307" type="line"/>
      <point x="290" y="363" type="line"/>
      <point x="689" y="363" type="line"/>
    </contour>
    <contour>
      <point x="610" y="53" type="line" smooth="yes"/>
      <point x="688" y="53"/>
      <point x="734" y="77"/>
      <point x="771" y="123" type="curve"/>
      <point x="812" y="107" type="line"/>
      <point x="763" y="32"/>
      <point x="700" y="0"/>
      <point x="579" y="0" type="curve" smooth="yes"/>
      <point x="61" y="0" type="line"/>
      <point x="97" y="53" type="line"/>
    </contour>
  </outline>
</glyph>
<glyph name="Omegagreek" format="1">
  <advance width="826" height="962"/>
  <unicode hex="03A9"/>
  <outline>
    <contour>
      <point x="820" y="195" type="line" smooth="yes"/>
      <point x="806" y="129"/>
      <point x="761" y="80"/>
      <point x="680" y="50" type="curve"/>
      <point x="795" y="50" type="line"/>
      <point x="798" y="-1" type="line"/>
      <point x="455" y="-1" type="line"/>
      <point x="466" y="50" type="line"/>
      <point x="598" y="50"/>
      <point x="746" y="102"/>
      <point x="765" y="195" type="curve" smooth="yes"/>
      <point x="831" y="502" type="line" smooth="yes"/>
      <point x="852" y="600"/>
      <point x="784" y="654"/>
      <point x="656" y="654" type="curve" smooth="yes"/>
      <point x="448" y="654" type="line" smooth="yes"/>
      <point x="319" y="654"/>
      <point x="232" y="600"/>
      <point x="211" y="502" type="curve" smooth="yes"/>
      <point x="145" y="195" type="line" smooth="yes"/>
      <point x="125" y="100"/>
      <point x="241" y="50"/>
      <point x="380" y="50" type="curve"/>
      <point x="369" y="-1" type="line"/>
      <point x="26" y="-1" type="line"/>
      <point x="54" y="50" type="line"/>
      <point x="161" y="50" type="line"/>
      <point x="100" y="79"/>
      <point x="74" y="128"/>
      <point x="88" y="195" type="curve" smooth="yes"/>
      <point x="152" y="493" type="line" smooth="yes"/>
      <point x="180" y="625"/>
      <point x="270" y="707"/>
      <point x="459" y="707" type="curve" smooth="yes"/>
      <point x="667" y="707" type="line" smooth="yes"/>
      <point x="854" y="707"/>
      <point x="912" y="625"/>
      <point x="884" y="493" type="curve" smooth="yes"/>
    </contour>
  </outline>
</glyph>
<glyph name="iotatonos" format="2">
  <advance width="135" height="962"/>
  <unicode hex="03AF"/>
  <outline>
    <component base="dotlessi"/>
    <contour>
      <point x="270" y="639" type="curve" smooth="yes"/>
      <point x="201" y="560" type="line"/>
      <point x="166" y="560" type="line"/>
      <point x="226" y="667" type="line" smooth="yes"/>
      <point x="236" y="686"/>
      <point x="258" y="696"/>
      <point x="273" y="686" type="curve" smooth="yes"/>
      <point x="289" y="676"/>
      <point x="285" y="655"/>
    </contour>
  </outline>
</glyph>
<glyph name="gamma" format="1">
  <advance width="727" height="962"/>
  <unicode hex="03B3"/>
  <outline>
    <contour>
      <point x="808" y="479" type="line"/>
      <point x="717" y="460"/>
      <point x="701" y="436"/>
      <point x="660" y="375" type="curve" smooth="yes"/>
      <point x="371" y="-58" type="line" smooth="yes"/>
      <point x="341" y="-102"/>
      <point x="302" y="-196"/>
      <point x="122" y="-199" type="curve"/>
      <point x="120" y="-156" type="line"/>
      <point x="201" y="-154"/>
      <point x="268" y="-123"/>
      <point x="297" y="-79" type="curve" smooth="yes"/>
      <point x="348" y="-4" type="line"/>
      <point x="252" y="12"/>
      <point x="224" y="69"/>
      <point x="211" y="129" type="curve"/>
      <point x="126" y="500" type="line"/>
      <point x="186" y="500" type="line"/>
      <point x="268" y="140" type="line" smooth="yes"/>
      <point x="284" y="66"/>
      <point x="330" y="50"/>
      <point x="380" y="43" type="curve"/>
      <point x="611" y="387" type="line" smooth="yes"/>
      <point x="660" y="460"/>
      <point x="691" y="499"/>
      <point x="779" y="511" type="curve"/>
    </contour>
  </outline>
</glyph>
<glyph name="theta" format="2">
  <advance width="628"/>
  <unicode hex="03B8"/>
  <outline>
    <contour>
      <point x="463" y="709" type="curve" smooth="yes"/>
      <point x="654" y="709"/>
      <point x="728" y="643"/>
      <point x="699" y="509" type="curve" smooth="yes"/>
      <point x="630" y="183" type="line" smooth="yes"/>
      <point x="601" y="46"/>
      <point x="496" y="-6"/>
      <point x="311" y="-6" type="curve" smooth="yes"/>
      <point x="122" y="-6"/>
      <point x="41" y="54"/>
      <point x="69" y="183" type="curve" smooth="yes"/>
      <point x="96" y="311" type="line" smooth="yes"/>
      <point x="109" y="371"/>
      <point x="135" y="415"/>
      <point x="196" y="449" type="curve"/>
      <point x="168" y="488"/>
      <point x="168" y="522"/>
      <point x="175" y="556" type="curve" smooth="yes"/>
      <point x="194" y="644"/>
      <point x="295" y="709"/>
    </contour>
    <contour>
      <point x="641" y="510" type="line" smooth="yes"/>
      <point x="666" y="625"/>
      <point x="567" y="656"/>
      <point x="453" y="656" type="curve" smooth="yes"/>
      <point x="332" y="656"/>
      <point x="249" y="619"/>
      <point x="235" y="555" type="curve" smooth="yes"/>
      <point x="227" y="518"/>
      <point x="238" y="465"/>
      <point x="331" y="429" type="curve" smooth="yes"/>
      <point x="382" y="409"/>
      <point x="495" y="394"/>
      <point x="617" y="394" type="curve"/>
    </contour>
    <contour>
      <point x="321" y="42" type="curve" smooth="yes"/>
      <point x="450" y="42"/>
      <point x="549" y="74"/>
      <point x="569" y="170" type="curve" smooth="yes"/>
      <point x="607" y="349" type="line"/>
      <point x="426" y="344"/>
      <point x="287" y="367"/>
      <point x="232" y="413" type="curve"/>
      <point x="190" y="391"/>
      <point x="164" y="368"/>
      <point x="152" y="311" type="curve" smooth="yes"/>
      <point x="122" y="170" type="line" smooth="yes"/>
      <point x="102" y="74"/>
      <point x="204" y="42"/>
    </contour>
  </outline>
</glyph>
<glyph name="xi" format="2">
  <advance width="608"/>
  <unicode hex="03BE"/>
  <outline>
    <contour>
      <point x="676" y="651" type="line"/>
      <point x="440" y="651" type="line" smooth="yes"/>
      <point x="353" y="651"/>
      <point x="309" y="614"/>
      <point x="294" y="544" type="curve" smooth="yes"/>
      <point x="279" y="474"/>
      <point x="361" y="419"/>
      <point x="482" y="404" type="curve" smooth="yes"/>
      <point x="531" y="398" type="line"/>
      <point x="505" y="354" type="line"/>
      <point x="322" y="354" type="line" smooth="yes"/>
      <point x="268" y="354"/>
      <point x="159" y="354"/>
      <point x="140" y="264" type="curve" smooth="yes"/>
      <point x="119" y="166" type="line" smooth="yes"/>
      <point x="98" y="67"/>
      <point x="159" y="32"/>
      <point x="355" y="38" type="curve" smooth="yes"/>
      <point x="410" y="40"/>
      <point x="529" y="49"/>
      <point x="568" y="51" type="curve"/>
      <point x="512" y="-212" type="line"/>
      <point x="459" y="-198" type="line"/>
      <point x="500" y="-4" type="line"/>
      <point x="453" y="-6"/>
      <point x="388" y="-9"/>
      <point x="349" y="-10" type="curve" smooth="yes"/>
      <point x="156" y="-15"/>
      <point x="29" y="8"/>
      <point x="61" y="159" type="curve" smooth="yes"/>
      <point x="83" y="265" type="line" smooth="yes"/>
      <point x="105" y="367"/>
      <point x="202" y="405"/>
      <point x="311" y="405" type="curve" smooth="yes"/>
      <point x="323" y="405" type="line"/>
      <point x="249" y="438"/>
      <point x="223" y="499"/>
      <point x="233" y="545" type="curve" smooth="yes"/>
      <point x="252" y="637"/>
      <point x="328" y="702"/>
      <point x="448" y="702" type="curve" smooth="yes"/>
      <point x="707" y="702" type="line"/>
    </contour>
  </outline>
  <guideline angle="0" x="0" y="-4"/>
</glyph>
<glyph name="pi" format="2">
  <advance width="659"/>
  <unicode hex="03C0"/>
  <outline>
    <contour>
      <point x="619" y="79" type="line" smooth="yes"/>
      <point x="613" y="51"/>
      <point x="631" y="37"/>
      <point x="653" y="26" type="curve"/>
      <point x="616" y="-6" type="line"/>
      <point x="616" y="-7"/>
      <point x="547" y="11"/>
      <point x="562" y="78" type="curve" smooth="yes"/>
      <point x="640" y="446" type="line"/>
      <point x="190" y="446" type="line"/>
      <point x="95" y="0" type="line"/>
      <point x="38" y="0" type="line"/>
      <point x="144" y="500" type="line"/>
      <point x="708" y="500" type="line"/>
    </contour>
  </outline>
</glyph>
<glyph name="rho" format="2">
  <advance width="621"/>
  <unicode hex="03C1"/>
  <outline>
    <contour>
      <point x="625" y="161" type="line" smooth="yes"/>
      <point x="600" y="40"/>
      <point x="500" y="-18"/>
      <point x="333" y="-18" type="curve" smooth="yes"/>
      <point x="239" y="-18"/>
      <point x="130" y="15"/>
      <point x="105" y="56" type="curve"/>
      <point x="48" y="-211" type="line"/>
      <point x="-4" y="-188" type="line"/>
      <point x="104" y="321" type="line" smooth="yes"/>
      <point x="133" y="458"/>
      <point x="247" y="508"/>
      <point x="424" y="508" type="curve" smooth="yes"/>
      <point x="603" y="508"/>
      <point x="687" y="453"/>
      <point x="659" y="321" type="curve" smooth="yes"/>
    </contour>
    <contour>
      <point x="602" y="321" type="line" smooth="yes"/>
      <point x="625" y="429"/>
      <point x="544" y="456"/>
      <point x="418" y="456" type="curve" smooth="yes"/>
      <point x="286" y="456"/>
      <point x="184" y="429"/>
      <point x="161" y="321" type="curve" smooth="yes"/>
      <point x="129" y="168" type="line" smooth="yes"/>
      <point x="110" y="82"/>
      <point x="223" y="35"/>
      <point x="337" y="35" type="curve" smooth="yes"/>
      <point x="451" y="35"/>
      <point x="548" y="68"/>
      <point x="567" y="153" type="curve" smooth="yes"/>
    </contour>
  </outline>
</glyph>
<glyph name="sigma1" format="2">
  <advance width="486"/>
  <unicode hex="03C2"/>
  <outline>
    <contour>
      <point x="139" y="285" type="line" smooth="yes"/>
      <point x="130" y="245"/>
      <point x="154" y="218"/>
      <point x="211" y="183" type="curve" smooth="yes"/>
      <point x="320" y="117" type="line" smooth="yes"/>
      <point x="368" y="87"/>
      <point x="427" y="51"/>
      <point x="413" y="-15" type="curve" smooth="yes"/>
      <point x="399" y="-79"/>
      <point x="332" y="-114"/>
      <point x="243" y="-143" type="curve"/>
      <point x="230" y="-106" type="line"/>
      <point x="287" y="-86"/>
      <point x="346" y="-62"/>
      <point x="355" y="-21" type="curve" smooth="yes"/>
      <point x="362" y="15"/>
      <point x="340" y="33"/>
      <point x="289" y="64" type="curve" smooth="yes"/>
      <point x="159" y="144" type="line" smooth="yes"/>
      <point x="86" y="189"/>
      <point x="71" y="229"/>
      <point x="83" y="288" type="curve" smooth="yes"/>
      <point x="95" y="344" type="line" smooth="yes"/>
      <point x="118" y="452"/>
      <point x="241" y="505"/>
      <point x="367" y="505" type="curve" smooth="yes"/>
      <point x="486" y="505"/>
      <point x="560" y="469"/>
      <point x="558" y="471" type="curve"/>
      <point x="521" y="427" type="line"/>
      <point x="495" y="439"/>
      <point x="435" y="455"/>
      <point x="377" y="456" type="curve" smooth="yes"/>
      <point x="278" y="458"/>
      <point x="169" y="426"/>
      <point x="151" y="344" type="curve" smooth="yes"/>
    </contour>
  </outline>
</glyph>
<glyph name="sigma" format="2">
  <advance width="652"/>
  <unicode hex="03C3"/>
  <outline>
    <contour>
      <point x="762" y="517" type="line"/>
      <point x="718" y="480"/>
      <point x="671" y="461"/>
      <point x="624" y="453" type="curve"/>
      <point x="648" y="431"/>
      <point x="667" y="404"/>
      <point x="651" y="330" type="curve" smooth="yes"/>
      <point x="618" y="175" type="line" smooth="yes"/>
      <point x="593" y="58"/>
      <point x="491" y="-10"/>
      <point x="310" y="-10" type="curve" smooth="yes"/>
      <point x="122" y="-10"/>
      <point x="40" y="57"/>
      <point x="65" y="175" type="curve" smooth="yes"/>
      <point x="98" y="330" type="line" smooth="yes"/>
      <point x="133" y="492"/>
      <point x="289" y="512"/>
      <point x="418" y="512" type="curve" smooth="yes"/>
      <point x="490" y="512"/>
      <point x="574" y="501"/>
      <point x="617" y="504" type="curve" smooth="yes"/>
      <point x="651" y="507"/>
      <point x="702" y="521"/>
      <point x="738" y="543" type="curve"/>
    </contour>
    <contour>
      <point x="598" y="344" type="line" smooth="yes"/>
      <point x="612" y="408"/>
      <point x="571" y="441"/>
      <point x="544" y="450" type="curve"/>
      <point x="502" y="453"/>
      <point x="452" y="459"/>
      <point x="407" y="459" type="curve" smooth="yes"/>
      <point x="320" y="459"/>
      <point x="180" y="449"/>
      <point x="157" y="337" type="curve" smooth="yes"/>
      <point x="120" y="165" type="line" smooth="yes"/>
      <point x="101" y="75"/>
      <point x="202" y="40"/>
      <point x="322" y="40" type="curve" smooth="yes"/>
      <point x="448" y="40"/>
      <point x="543" y="83"/>
      <point x="560" y="165" type="curve" smooth="yes"/>
    </contour>
  </outline>
</glyph>
<glyph name="psi" format="2">
  <advance width="850" height="962"/>
  <unicode hex="03C8"/>
  <outline>
    <contour>
      <point x="879" y="506" type="line"/>
      <point x="913" y="472"/>
      <point x="912" y="438"/>
      <point x="901" y="387" type="curve" smooth="yes"/>
      <point x="857" y="179" type="line" smooth="yes"/>
      <point x="831" y="58"/>
      <point x="734" y="-7"/>
      <point x="544" y="-7" type="curve" smooth="yes"/>
      <point x="454" y="-7" type="line"/>
      <point x="410" y="-210" type="line"/>
      <point x="358" y="-188" type="line"/>
      <point x="397" y="-7" type="line"/>
      <point x="297" y="-7" type="line" smooth="yes"/>
      <point x="108" y="-7"/>
      <point x="40" y="58"/>
      <point x="66" y="179" type="curve" smooth="yes"/>
      <point x="134" y="500" type="line"/>
      <point x="192" y="500" type="line"/>
      <point x="122" y="169" type="line" smooth="yes"/>
      <point x="103" y="81"/>
      <point x="189" y="43"/>
      <point x="307" y="43" type="curve" smooth="yes"/>
      <point x="407" y="43" type="line"/>
      <point x="504" y="500" type="line"/>
      <point x="561" y="500" type="line"/>
      <point x="464" y="43" type="line"/>
      <point x="554" y="43" type="line" smooth="yes"/>
      <point x="674" y="43"/>
      <point x="779" y="81"/>
      <point x="798" y="169" type="curve" smooth="yes"/>
      <point x="844" y="387" type="line" smooth="yes"/>
      <point x="853" y="430"/>
      <point x="857" y="458"/>
      <point x="824" y="489" type="curve"/>
    </contour>
  </outline>
</glyph>
<glyph name="uni0402" format="1">
  <advance width="848" height="962"/>
  <unicode hex="0402"/>
  <outline>
    <component base="T" xOffset="-2"/>
    <contour>
      <point x="663" y="509" type="curve" smooth="yes"/>
      <point x="844" y="509"/>
      <point x="910" y="454"/>
      <point x="886" y="344" type="curve" smooth="yes"/>
      <point x="841" y="131" type="line" smooth="yes"/>
      <point x="824" y="53"/>
      <point x="765" y="8"/>
      <point x="648" y="-14" type="curve"/>
      <point x="635" y="29" type="line"/>
      <point x="706" y="44"/>
      <point x="778" y="78"/>
      <point x="789" y="131" type="curve" smooth="yes"/>
      <point x="832" y="336" type="line" smooth="yes"/>
      <point x="855" y="444"/>
      <point x="749" y="459"/>
      <point x="640" y="459" type="curve" smooth="yes"/>
      <point x="570" y="459"/>
      <point x="488" y="447"/>
      <point x="420" y="424" type="curve"/>
      <point x="429" y="466" type="line"/>
      <point x="493" y="492"/>
      <point x="586" y="509"/>
    </contour>
  </outline>
</glyph>
<glyph name="uni0404" format="2">
  <advance width="605" height="962"/>
  <unicode hex="0404"/>
  <outline>
    <component base="C"/>
    <contour>
      <point x="164" y="357" type="line"/>
      <point x="176" y="412" type="line"/>
      <point x="476" y="412" type="line"/>
      <point x="447" y="357" type="line"/>
    </contour>
  </outline>
</glyph>
<glyph name="uni040A" format="1">
  <advance width="1211" height="962"/>
  <unicode hex="040A"/>
  <outline>
    <contour>
      <point x="1047" y="413" type="line" smooth="yes"/>
      <point x="1180" y="413"/>
      <point x="1261" y="372"/>
      <point x="1237" y="260" type="curve" smooth="yes"/>
      <point x="1216" y="160" type="line" smooth="yes"/>
      <point x="1184" y="9"/>
      <point x="1055" y="-9"/>
      <point x="860" y="-9" type="curve" smooth="yes"/>
      <point x="782" y="-9"/>
      <point x="610" y="1"/>
      <point x="610" y="1" type="curve"/>
      <point x="686" y="358" type="line"/>
      <point x="176" y="358" type="line"/>
      <point x="100" y="1" type="line"/>
      <point x="42" y="1" type="line"/>
      <point x="191" y="701" type="line"/>
      <point x="249" y="701" type="line"/>
      <point x="188" y="413" type="line"/>
      <point x="698" y="413" type="line"/>
      <point x="759" y="701" type="line"/>
      <point x="815" y="701" type="line"/>
      <point x="754" y="413" type="line"/>
    </contour>
    <contour>
      <point x="1165" y="167" type="curve" smooth="yes"/>
      <point x="1184" y="256" type="line" smooth="yes"/>
      <point x="1204" y="347"/>
      <point x="1109" y="358"/>
      <point x="1048" y="358" type="curve" smooth="yes"/>
      <point x="742" y="358" type="line"/>
      <point x="676" y="45" type="line"/>
      <point x="690" y="44"/>
      <point x="788" y="39"/>
      <point x="878" y="39" type="curve" smooth="yes"/>
      <point x="1038" y="39"/>
      <point x="1140" y="49"/>
    </contour>
  </outline>
</glyph>
<glyph name="uni040B" format="2">
  <advance width="850"/>
  <unicode hex="040B"/>
  <outline>
    <component base="T" xOffset="-1"/>
    <contour>
      <point x="659" y="510" type="curve" smooth="yes"/>
      <point x="826" y="510"/>
      <point x="910" y="462"/>
      <point x="888" y="356" type="curve" smooth="yes"/>
      <point x="812" y="0" type="line"/>
      <point x="756" y="0" type="line"/>
      <point x="831" y="353" type="line" smooth="yes"/>
      <point x="850" y="444"/>
      <point x="729" y="460"/>
      <point x="633" y="460" type="curve" smooth="yes"/>
      <point x="564" y="460"/>
      <point x="487" y="448"/>
      <point x="420" y="425" type="curve"/>
      <point x="429" y="467" type="line"/>
      <point x="492" y="493"/>
      <point x="584" y="510"/>
    </contour>
  </outline>
</glyph>
<glyph name="uni0414" format="2">
  <advance width="773" height="962"/>
  <unicode hex="0414"/>
  <outline>
    <contour>
      <point x="705" y="56" type="line"/>
      <point x="771" y="56" type="line"/>
      <point x="736" y="-106" type="line"/>
      <point x="684" y="-106" type="line"/>
      <point x="702" y="-1" type="line"/>
      <point x="65" y="-1" type="line"/>
      <point x="36" y="-106" type="line"/>
      <point x="-11" y="-106" type="line"/>
      <point x="24" y="56" type="line"/>
      <point x="94" y="56" type="line"/>
      <point x="427" y="557" type="line" smooth="yes"/>
      <point x="464" y="612"/>
      <point x="522" y="700"/>
      <point x="689" y="700" type="curve" smooth="yes"/>
      <point x="842" y="700" type="line"/>
    </contour>
    <contour>
      <point x="648" y="56" type="line"/>
      <point x="774" y="647" type="line"/>
      <point x="661" y="647" type="line" smooth="yes"/>
      <point x="569" y="647"/>
      <point x="522" y="608"/>
      <point x="493" y="565" type="curve" smooth="yes"/>
      <point x="152" y="56" type="line"/>
    </contour>
  </outline>
</glyph>
<glyph name="uni0416" format="1">
  <advance width="997" height="962"/>
  <unicode hex="0416"/>
  <outline>
    <contour>
      <point x="897" y="0" type="line"/>
      <point x="662" y="322" type="line"/>
      <point x="593" y="322" type="line"/>
      <point x="525" y="0" type="line"/>
      <point x="468" y="0" type="line"/>
      <point x="536" y="322" type="line"/>
      <point x="471" y="322" type="line"/>
      <point x="98" y="0" type="line"/>
      <point x="22" y="0" type="line"/>
      <point x="428" y="351" type="line"/>
      <point x="198" y="700" type="line"/>
      <point x="270" y="700" type="line"/>
      <point x="483" y="377" type="line"/>
      <point x="548" y="377" type="line"/>
      <point x="617" y="700" type="line"/>
      <point x="674" y="700" type="line"/>
      <point x="605" y="377" type="line"/>
      <point x="670" y="377" type="line"/>
      <point x="1026" y="700" type="line"/>
      <point x="1096" y="700" type="line"/>
      <point x="718" y="351" type="line"/>
      <point x="971" y="0" type="line"/>
    </contour>
  </outline>
</glyph>
<glyph name="uni0417" format="2">
  <advance width="666" height="962"/>
  <unicode hex="0417"/>
  <outline>
    <contour>
      <point x="233" y="412" type="line"/>
      <point x="419" y="412" type="line" smooth="yes"/>
      <point x="524" y="412"/>
      <point x="639" y="455"/>
      <point x="656" y="535" type="curve" smooth="yes"/>
      <point x="676" y="630"/>
      <point x="580" y="660"/>
      <point x="433" y="660" type="curve" smooth="yes"/>
      <point x="348" y="660"/>
      <point x="252" y="639"/>
      <point x="252" y="639" type="curve"/>
      <point x="240" y="677" type="line"/>
      <point x="240" y="677"/>
      <point x="327" y="710"/>
      <point x="470" y="710" type="curve" smooth="yes"/>
      <point x="669" y="710"/>
      <point x="733" y="636"/>
      <point x="712" y="538" type="curve" smooth="yes"/>
      <point x="702" y="487"/>
      <point x="672" y="427"/>
      <point x="556" y="389" type="curve"/>
      <point x="650" y="361"/>
      <point x="706" y="314"/>
      <point x="684" y="212" type="curve" smooth="yes"/>
      <point x="658" y="91"/>
      <point x="546" y="-11"/>
      <point x="256" y="-11" type="curve" smooth="yes"/>
      <point x="134" y="-11"/>
      <point x="21" y="23"/>
      <point x="21" y="23" type="curve"/>
      <point x="49" y="69" type="line"/>
      <point x="49" y="69"/>
      <point x="155" y="39"/>
      <point x="264" y="39" type="curve" smooth="yes"/>
      <point x="478" y="39"/>
      <point x="604" y="100"/>
      <point x="628" y="212" type="curve" smooth="yes"/>
      <point x="651" y="319"/>
      <point x="523" y="355"/>
      <point x="385" y="355" type="curve" smooth="yes"/>
      <point x="247" y="355" type="line"/>
    </contour>
  </outline>
</glyph>
<glyph name="uni0418" format="2">
  <advance width="822"/>
  <unicode hex="0418"/>
  <outline>
    <contour>
      <point x="190" y="700" type="line"/>
      <point x="248" y="700" type="line"/>
      <point x="115" y="75" type="line"/>
      <point x="872" y="700" type="line"/>
      <point x="929" y="700" type="line"/>
      <point x="780" y="0" type="line"/>
      <point x="723" y="0" type="line"/>
      <point x="855" y="623" type="line"/>
      <point x="103" y="0" type="line"/>
      <point x="41" y="0" type="line"/>
    </contour>
  </outline>
</glyph>
<glyph name="uni0423" format="2">
  <advance width="715" height="962"/>
  <unicode hex="0423"/>
  <outline>
    <contour>
      <point x="792" y="700" type="line"/>
      <point x="858" y="700" type="line"/>
      <point x="322" y="111" type="line" smooth="yes"/>
      <point x="255" y="39"/>
      <point x="208" y="3"/>
      <point x="109" y="-12" type="curve"/>
      <point x="87" y="19" type="line"/>
      <point x="192" y="37"/>
      <point x="248" y="101"/>
      <point x="268" y="123" type="curve" smooth="yes"/>
      <point x="392" y="261" type="line"/>
      <point x="155" y="700" type="line"/>
      <point x="225" y="700" type="line"/>
      <point x="434" y="306" type="line"/>
    </contour>
  </outline>
</glyph>
<glyph name="uni0427" format="2">
  <advance width="713"/>
  <unicode hex="0427"/>
  <outline>
    <contour>
      <point x="838" y="700" type="line"/>
      <point x="689" y="0" type="line"/>
      <point x="632" y="0" type="line"/>
      <point x="702" y="328" type="line"/>
      <point x="631" y="265"/>
      <point x="489" y="245"/>
      <point x="385" y="245" type="curve" smooth="yes"/>
      <point x="184" y="245"/>
      <point x="88" y="314"/>
      <point x="116" y="445" type="curve" smooth="yes"/>
      <point x="170" y="700" type="line"/>
      <point x="223" y="700" type="line"/>
      <point x="171" y="458" type="line" smooth="yes"/>
      <point x="145" y="336"/>
      <point x="247" y="300"/>
      <point x="412" y="300" type="curve" smooth="yes"/>
      <point x="529" y="300"/>
      <point x="703" y="334"/>
      <point x="725" y="436" type="curve" smooth="yes"/>
      <point x="781" y="700" type="line"/>
    </contour>
  </outline>
</glyph>
<glyph name="uni0428" format="1">
  <advance width="920" height="962"/>
  <unicode hex="0428"/>
  <outline>
    <contour>
      <point x="973" y="700" type="line"/>
      <point x="1027" y="700" type="line"/>
      <point x="878" y="0" type="line"/>
      <point x="44" y="0" type="line"/>
      <point x="193" y="700" type="line"/>
      <point x="247" y="700" type="line"/>
      <point x="110" y="57" type="line"/>
      <point x="444" y="57" type="line"/>
      <point x="581" y="700" type="line"/>
      <point x="638" y="700" type="line"/>
      <point x="501" y="57" type="line"/>
      <point x="836" y="57" type="line"/>
    </contour>
  </outline>
</glyph>
<glyph name="uni0429" format="1">
  <advance width="955" height="962"/>
  <unicode hex="0429"/>
  <outline>
    <component base="uni0428"/>
    <contour>
      <point x="847" y="57" type="line"/>
      <point x="943" y="57" type="line"/>
      <point x="909" y="-105" type="line"/>
      <point x="862" y="-105" type="line"/>
      <point x="880" y="0" type="line"/>
      <point x="835" y="0" type="line"/>
    </contour>
  </outline>
</glyph>
<glyph name="uni042A" format="1">
  <advance width="745" height="962"/>
  <unicode hex="042A"/>
  <outline>
    <component base="uni042C" xOffset="97"/>
    <contour>
      <point x="150" y="700" type="line"/>
      <point x="314" y="700" type="line"/>
      <point x="303" y="649" type="line"/>
      <point x="275" y="649" type="line"/>
      <point x="139" y="651" type="line"/>
    </contour>
  </outline>
</glyph>
<glyph name="uni042C" format="1">
  <advance width="646" height="962"/>
  <unicode hex="042C"/>
  <outline>
    <contour>
      <point x="500" y="412" type="line" smooth="yes"/>
      <point x="618" y="412"/>
      <point x="701" y="378"/>
      <point x="677" y="263" type="curve" smooth="yes"/>
      <point x="655" y="158" type="line" smooth="yes"/>
      <point x="620" y="-3"/>
      <point x="480" y="-11"/>
      <point x="277" y="-11" type="curve" smooth="yes"/>
      <point x="203" y="-11"/>
      <point x="39" y="-1"/>
      <point x="42" y="-1" type="curve"/>
      <point x="191" y="700" type="line"/>
      <point x="246" y="700" type="line"/>
      <point x="185" y="412" type="line"/>
    </contour>
    <contour>
      <point x="597" y="165" type="curve" smooth="yes"/>
      <point x="617" y="259" type="line" smooth="yes"/>
      <point x="637" y="352"/>
      <point x="546" y="357"/>
      <point x="494" y="357" type="curve" smooth="yes"/>
      <point x="173" y="357" type="line"/>
      <point x="107" y="45" type="line"/>
      <point x="116" y="45"/>
      <point x="203" y="37"/>
      <point x="293" y="37" type="curve" smooth="yes"/>
      <point x="465" y="37"/>
      <point x="569" y="31"/>
    </contour>
  </outline>
</glyph>
<glyph name="uni042D" format="2">
  <advance width="603"/>
  <unicode hex="042D"/>
  <outline>
    <contour>
      <point x="224" y="638" type="curve"/>
      <point x="216" y="677" type="line"/>
      <point x="284" y="699"/>
      <point x="367" y="710"/>
      <point x="447.8" y="710" type="curve" smooth="yes"/>
      <point x="589.55" y="710"/>
      <point x="721.9" y="678.2"/>
      <point x="686" y="510" type="curve" smooth="yes"/>
      <point x="617" y="184.9" type="line" smooth="yes"/>
      <point x="581.7" y="14.4"/>
      <point x="428.35" y="-10"/>
      <point x="276" y="-10" type="curve" smooth="yes"/>
      <point x="200" y="-10"/>
      <point x="119" y="1"/>
      <point x="40" y="23" type="curve"/>
      <point x="63" y="71.2" type="line"/>
      <point x="143" y="51.05"/>
      <point x="223" y="40"/>
      <point x="281" y="40" type="curve" smooth="yes"/>
      <point x="399.15" y="40"/>
      <point x="531.5" y="50.35"/>
      <point x="561" y="186.9" type="curve" smooth="yes"/>
      <point x="597.304" y="359" type="line"/>
      <point x="320" y="359" type="line"/>
      <point x="312" y="412" type="line"/>
      <point x="608.484" y="412" type="line"/>
      <point x="630" y="514" type="line" smooth="yes"/>
      <point x="660.45" y="654.1"/>
      <point x="506.85" y="660"/>
      <point x="407" y="660" type="curve" smooth="yes"/>
      <point x="355" y="660"/>
      <point x="282" y="653"/>
    </contour>
  </outline>
</glyph>
<glyph name="uni0432" format="2">
  <advance width="640"/>
  <unicode hex="0432"/>
  <outline>
    <contour>
      <point x="550" y="279" type="curve"/>
      <point x="619" y="258"/>
      <point x="657" y="221"/>
      <point x="642" y="149" type="curve" smooth="yes"/>
      <point x="620" y="46"/>
      <point x="529" y="-11"/>
      <point x="332" y="-11" type="curve" smooth="yes"/>
      <point x="195" y="-11"/>
      <point x="34" y="0"/>
      <point x="34" y="0" type="curve"/>
      <point x="140" y="501" type="line"/>
      <point x="140" y="501"/>
      <point x="278" y="511"/>
      <point x="438" y="511" type="curve" smooth="yes"/>
      <point x="609" y="511"/>
      <point x="668" y="470"/>
      <point x="649" y="383" type="curve" smooth="yes"/>
      <point x="638" y="331"/>
      <point x="601" y="298"/>
    </contour>
    <contour>
      <point x="418" y="461" type="curve" smooth="yes"/>
      <point x="342" y="461"/>
      <point x="184" y="455"/>
      <point x="184" y="455" type="curve"/>
      <point x="151" y="301" type="line"/>
      <point x="428" y="301" type="line" smooth="yes"/>
      <point x="494" y="301"/>
      <point x="578" y="321"/>
      <point x="591" y="383" type="curve" smooth="yes"/>
      <point x="606" y="451"/>
      <point x="505" y="461"/>
    </contour>
    <contour>
      <point x="328" y="42" type="curve" smooth="yes"/>
      <point x="462" y="42"/>
      <point x="566" y="67"/>
      <point x="583" y="146" type="curve" smooth="yes"/>
      <point x="601" y="232"/>
      <point x="474" y="247"/>
      <point x="415" y="247" type="curve" smooth="yes"/>
      <point x="140" y="247" type="line"/>
      <point x="97" y="46" type="line"/>
      <point x="97" y="46"/>
      <point x="230" y="42"/>
    </contour>
  </outline>
</glyph>
<glyph name="uni0434" format="2">
  <advance width="702" height="962"/>
  <unicode hex="0434"/>
  <outline>
    <contour>
      <point x="646" y="57" type="line"/>
      <point x="703" y="57" type="line"/>
      <point x="669" y="-105" type="line"/>
      <point x="618" y="-105" type="line"/>
      <point x="634" y="0" type="line"/>
      <point x="68" y="0" type="line"/>
      <point x="40" y="-105" type="line"/>
      <point x="-13" y="-105" type="line"/>
      <point x="21" y="57" type="line"/>
      <point x="84" y="57" type="line"/>
      <point x="283" y="357" type="line" smooth="yes"/>
      <point x="320" y="412"/>
      <point x="362" y="500"/>
      <point x="524" y="500" type="curve" smooth="yes"/>
      <point x="740" y="500" type="line"/>
    </contour>
    <contour>
      <point x="146" y="57" type="line"/>
      <point x="589" y="57" type="line"/>
      <point x="672" y="447" type="line"/>
      <point x="510" y="447" type="line" smooth="yes"/>
      <point x="411" y="447"/>
      <point x="380" y="409"/>
      <point x="351" y="365" type="curve" smooth="yes"/>
    </contour>
  </outline>
</glyph>
<glyph name="uni0437" format="1">
  <advance width="571" height="962"/>
  <unicode hex="0437"/>
  <outline>
    <contour>
      <point x="221" y="444" type="curve"/>
      <point x="233" y="497" type="line"/>
      <point x="292" y="507"/>
      <point x="342" y="511"/>
      <point x="386" y="511" type="curve" smooth="yes"/>
      <point x="546" y="511"/>
      <point x="605" y="452"/>
      <point x="590" y="379" type="curve" smooth="yes"/>
      <point x="581" y="337"/>
      <point x="546" y="298"/>
      <point x="491" y="279" type="curve"/>
      <point x="567" y="257"/>
      <point x="593" y="213"/>
      <point x="580" y="149" type="curve" smooth="yes"/>
      <point x="560" y="56"/>
      <point x="472" y="-11"/>
      <point x="273" y="-11" type="curve" smooth="yes"/>
      <point x="186" y="-11"/>
      <point x="91" y="2"/>
      <point x="27" y="23" type="curve"/>
      <point x="52" y="74" type="line"/>
      <point x="120" y="55"/>
      <point x="200" y="42"/>
      <point x="269" y="42" type="curve" smooth="yes"/>
      <point x="404" y="42"/>
      <point x="508" y="67"/>
      <point x="525" y="146" type="curve" smooth="yes"/>
      <point x="543" y="232"/>
      <point x="435" y="247"/>
      <point x="377" y="247" type="curve" smooth="yes"/>
      <point x="200" y="247" type="line"/>
      <point x="191" y="301" type="line"/>
      <point x="389" y="301" type="line" smooth="yes"/>
      <point x="455" y="301"/>
      <point x="521" y="330"/>
      <point x="532" y="382" type="curve" smooth="yes"/>
      <point x="542" y="427"/>
      <point x="482" y="452"/>
      <point x="408" y="459" type="curve" smooth="yes"/>
      <point x="360" y="463"/>
      <point x="307" y="463"/>
    </contour>
  </outline>
</glyph>
<glyph name="uni0438" format="2">
  <advance width="627"/>
  <unicode hex="0438"/>
  <outline>
    <contour>
      <point x="198" y="500" type="line"/>
      <point x="106" y="66" type="line"/>
      <point x="636" y="500" type="line"/>
      <point x="698" y="500" type="line"/>
      <point x="592" y="0" type="line"/>
      <point x="538" y="0" type="line"/>
      <point x="630" y="433" type="line"/>
      <point x="103" y="0" type="line"/>
      <point x="38" y="0" type="line"/>
      <point x="144" y="500" type="line"/>
    </contour>
  </outline>
</glyph>
<glyph name="uni043D" format="1">
  <advance width="626" height="962"/>
  <unicode hex="043D"/>
  <outline>
    <contour>
      <point x="598" y="299" type="line"/>
      <point x="640" y="500" type="line"/>
      <point x="695" y="500" type="line"/>
      <point x="589" y="0" type="line"/>
      <point x="534" y="0" type="line"/>
      <point x="586" y="245" type="line"/>
      <point x="144" y="245" type="line"/>
      <point x="92" y="0" type="line"/>
      <point x="36" y="0" type="line"/>
      <point x="142" y="500" type="line"/>
      <point x="198" y="500" type="line"/>
      <point x="156" y="299" type="line"/>
    </contour>
  </outline>
</glyph>
<glyph name="uni0448" format="1">
  <advance width="878" height="962"/>
  <unicode hex="0448"/>
  <outline>
    <contour>
      <point x="885" y="500" type="line"/>
      <point x="939" y="500" type="line"/>
      <point x="833" y="0" type="line"/>
      <point x="44" y="0" type="line"/>
      <point x="150" y="500" type="line"/>
      <point x="203" y="500" type="line"/>
      <point x="109" y="57" type="line"/>
      <point x="423" y="57" type="line"/>
      <point x="517" y="500" type="line"/>
      <point x="570" y="500" type="line"/>
      <point x="476" y="57" type="line"/>
      <point x="791" y="57" type="line"/>
    </contour>
  </outline>
</glyph>
<glyph name="uni0449" format="2">
  <advance width="912"/>
  <unicode hex="0449"/>
  <outline>
    <component base="uni0448"/>
    <contour>
      <point x="820" y="57" type="line"/>
      <point x="902" y="57" type="line"/>
      <point x="868" y="-105" type="line"/>
      <point x="818" y="-105" type="line"/>
      <point x="834" y="0" type="line"/>
      <point x="808" y="0" type="line"/>
    </contour>
  </outline>
</glyph>
<glyph name="uni044A" format="2">
  <advance width="742"/>
  <unicode hex="044A"/>
  <outline>
    <component base="uni044C" xOffset="102"/>
    <contour>
      <point x="106" y="500" type="line"/>
      <point x="274" y="500" type="line"/>
      <point x="263" y="449" type="line"/>
      <point x="238" y="449" type="line"/>
      <point x="96" y="451" type="line"/>
    </contour>
  </outline>
</glyph>
<glyph name="uni044D" format="2">
  <advance width="545"/>
  <unicode hex="044D"/>
  <outline>
    <contour>
      <point x="139" y="433" type="curve"/>
      <point x="133" y="478" type="line"/>
      <point x="200" y="497"/>
      <point x="273" y="510"/>
      <point x="340" y="510" type="curve" smooth="yes"/>
      <point x="526" y="510"/>
      <point x="608" y="452"/>
      <point x="580" y="319" type="curve" smooth="yes"/>
      <point x="549" y="174" type="line" smooth="yes"/>
      <point x="518" y="27"/>
      <point x="397" y="-9"/>
      <point x="224" y="-11" type="curve" smooth="yes"/>
      <point x="157" y="-12"/>
      <point x="89" y="-6"/>
      <point x="29" y="5" type="curve"/>
      <point x="52" y="55" type="line"/>
      <point x="49" y="56"/>
      <point x="134" y="41"/>
      <point x="232" y="41" type="curve" smooth="yes"/>
      <point x="376" y="41"/>
      <point x="470" y="64"/>
      <point x="496" y="186" type="curve" smooth="yes"/>
      <point x="504.528" y="227" type="line"/>
      <point x="170" y="227" type="line"/>
      <point x="165" y="281" type="line"/>
      <point x="515.76" y="281" type="line"/>
      <point x="522" y="311" type="line" smooth="yes"/>
      <point x="544" y="416"/>
      <point x="468" y="459"/>
      <point x="327" y="459" type="curve" smooth="yes"/>
      <point x="269" y="459"/>
      <point x="195" y="449"/>
    </contour>
  </outline>
</glyph>
<glyph name="uni045F" format="2">
  <advance width="628"/>
  <unicode hex="045F"/>
  <outline>
    <contour>
      <point x="694" y="500" type="line"/>
      <point x="588" y="0" type="line"/>
      <point x="339" y="0" type="line"/>
      <point x="313" y="-107" type="line"/>
      <point x="265" y="-107" type="line"/>
      <point x="285" y="0" type="line"/>
      <point x="35" y="0" type="line"/>
      <point x="141" y="500" type="line"/>
      <point x="196" y="500" type="line"/>
      <point x="102" y="57" type="line"/>
      <point x="546" y="57" type="line"/>
      <point x="640" y="500" type="line"/>
    </contour>
  </outline>
</glyph>
<glyph name="uni0463" format="2">
  <advance width="688"/>
  <unicode hex="0463"/>
  <outline>
    <contour>
      <point x="508" y="303" type="line" smooth="yes"/>
      <point x="632" y="303"/>
      <point x="707" y="259"/>
      <point x="684" y="152" type="curve" smooth="yes"/>
      <point x="665" y="59"/>
      <point x="585" y="-8"/>
      <point x="376" y="-8" type="curve" smooth="yes"/>
      <point x="248" y="-8"/>
      <point x="97" y="2"/>
      <point x="77" y="3" type="curve"/>
      <point x="225" y="701" type="line"/>
      <point x="279" y="701" type="line"/>
      <point x="194" y="303" type="line"/>
    </contour>
    <contour>
      <point x="373" y="45" type="curve" smooth="yes"/>
      <point x="507" y="45"/>
      <point x="607" y="72"/>
      <point x="624" y="149" type="curve" smooth="yes"/>
      <point x="642" y="237"/>
      <point x="551" y="248"/>
      <point x="495" y="248" type="curve" smooth="yes"/>
      <point x="183" y="248" type="line"/>
      <point x="140" y="49" type="line"/>
      <point x="140" y="49"/>
      <point x="275" y="45"/>
    </contour>
    <contour>
      <point x="106" y="501" type="line"/>
      <point x="459" y="501" type="line"/>
      <point x="447" y="444" type="line"/>
      <point x="94" y="444" type="line"/>
    </contour>
  </outline>
</glyph>
<glyph name="uni046A" format="2">
  <advance width="868"/>
  <unicode hex="046A"/>
  <outline>
    <contour>
      <point x="634" y="376" type="line" smooth="yes"/>
      <point x="833" y="376"/>
      <point x="892" y="305"/>
      <point x="866" y="184" type="curve" smooth="yes"/>
      <point x="827" y="0" type="line"/>
      <point x="773" y="0" type="line"/>
      <point x="814" y="194" type="line" smooth="yes"/>
      <point x="833" y="282"/>
      <point x="763" y="325"/>
      <point x="633" y="325" type="curve" smooth="yes"/>
      <point x="525" y="325" type="line"/>
      <point x="456" y="0" type="line"/>
      <point x="402" y="0" type="line"/>
      <point x="471" y="325" type="line"/>
      <point x="363" y="325" type="line" smooth="yes"/>
      <point x="233" y="325"/>
      <point x="150" y="282"/>
      <point x="131" y="194" type="curve" smooth="yes"/>
      <point x="90" y="0" type="line"/>
      <point x="36" y="0" type="line"/>
      <point x="75" y="184" type="line" smooth="yes"/>
      <point x="101" y="305"/>
      <point x="185" y="376"/>
      <point x="384" y="376" type="curve" smooth="yes"/>
      <point x="475" y="376" type="line"/>
      <point x="224" y="700" type="line"/>
      <point x="934" y="700" type="line"/>
      <point x="542" y="376" type="line"/>
    </contour>
    <contour>
      <point x="517" y="420" type="line"/>
      <point x="791" y="643" type="line"/>
      <point x="346" y="643" type="line"/>
    </contour>
  </outline>
  <guideline angle="0" x="0" y="748"/>
</glyph>
<glyph name="uni046B" format="1">
  <advance width="846" height="962"/>
  <unicode hex="046B"/>
  <outline>
    <contour>
      <point x="617" y="300" type="line" smooth="yes"/>
      <point x="816" y="300"/>
      <point x="868" y="235"/>
      <point x="840" y="104" type="curve" smooth="yes"/>
      <point x="818" y="0" type="line"/>
      <point x="764" y="0" type="line"/>
      <point x="788" y="114" type="line" smooth="yes"/>
      <point x="809" y="212"/>
      <point x="744" y="250"/>
      <point x="616" y="250" type="curve" smooth="yes"/>
      <point x="500" y="250" type="line"/>
      <point x="447" y="0" type="line"/>
      <point x="393" y="0" type="line"/>
      <point x="446" y="250" type="line"/>
      <point x="337" y="250" type="line" smooth="yes"/>
      <point x="207" y="250"/>
      <point x="127" y="212"/>
      <point x="106" y="114" type="curve" smooth="yes"/>
      <point x="82" y="0" type="line"/>
      <point x="28" y="0" type="line"/>
      <point x="50" y="104" type="line" smooth="yes"/>
      <point x="78" y="235"/>
      <point x="158" y="300"/>
      <point x="358" y="300" type="curve" smooth="yes"/>
      <point x="429" y="300" type="line"/>
      <point x="200" y="500" type="line"/>
      <point x="849" y="500" type="line"/>
      <point x="539" y="300" type="line"/>
    </contour>
    <contour>
      <point x="491" y="329" type="line"/>
      <point x="669" y="443" type="line"/>
      <point x="359" y="443" type="line"/>
    </contour>
  </outline>
</glyph>
<glyph name="uni0474" format="2">
  <advance width="792"/>
  <unicode hex="0474"/>
  <outline>
    <contour>
      <point x="914" y="712" type="curve"/>
      <point x="934" y="677" type="line"/>
      <point x="840" y="660"/>
      <point x="810" y="617"/>
      <point x="791" y="587" type="curve" smooth="yes"/>
      <point x="407" y="-1" type="line"/>
      <point x="336" y="-1" type="line"/>
      <point x="172" y="700" type="line"/>
      <point x="234" y="700" type="line"/>
      <point x="384" y="58" type="line"/>
      <point x="723" y="576" type="line" smooth="yes"/>
      <point x="775" y="656"/>
      <point x="818" y="698"/>
    </contour>
  </outline>
</glyph>
<glyph name="uni0475" format="2">
  <advance width="655" height="962"/>
  <unicode hex="0475"/>
  <outline>
    <contour>
      <point x="733" y="512" type="curve"/>
      <point x="757" y="478" type="line"/>
      <point x="679" y="457"/>
      <point x="650" y="417"/>
      <point x="628" y="388" type="curve" smooth="yes"/>
      <point x="344" y="0" type="line"/>
      <point x="278" y="0" type="line"/>
      <point x="126" y="500" type="line"/>
      <point x="186" y="500" type="line"/>
      <point x="325" y="57" type="line"/>
      <point x="554" y="376" type="line" smooth="yes"/>
      <point x="611" y="456"/>
      <point x="655" y="499"/>
    </contour>
  </outline>
</glyph>
<glyph name="uni0490" format="2">
  <advance width="549"/>
  <unicode hex="0490"/>
  <outline>
    <component base="Gamma"/>
    <contour>
      <point x="659" y="791" type="line"/>
      <point x="710" y="791" type="line"/>
      <point x="684" y="670" type="line"/>
      <point x="630" y="670" type="line"/>
      <point x="637" y="699" type="line"/>
    </contour>
  </outline>
</glyph>
<glyph name="uni0495" format="1">
  <advance width="585" height="962"/>
  <unicode hex="0495"/>
  <outline>
    <component base="uni0433"/>
    <contour>
      <point x="369" y="304" type="curve" smooth="yes"/>
      <point x="517" y="304"/>
      <point x="606" y="260"/>
      <point x="582" y="144" type="curve" smooth="yes"/>
      <point x="538" y="-62" type="line" smooth="yes"/>
      <point x="520" y="-145"/>
      <point x="466" y="-184"/>
      <point x="347" y="-209" type="curve"/>
      <point x="332" y="-166" type="line"/>
      <point x="425" y="-149"/>
      <point x="474" y="-119"/>
      <point x="486" y="-61" type="curve" smooth="yes"/>
      <point x="529" y="141" type="line" smooth="yes"/>
      <point x="550" y="242"/>
      <point x="428" y="254"/>
      <point x="343" y="254" type="curve" smooth="yes"/>
      <point x="281" y="254"/>
      <point x="194" y="242"/>
      <point x="131" y="219" type="curve"/>
      <point x="139" y="261" type="line"/>
      <point x="199" y="287"/>
      <point x="301" y="304"/>
    </contour>
  </outline>
</glyph>
<glyph name="uni049A" format="2">
  <advance width="659" height="962"/>
  <unicode hex="049A"/>
  <outline>
    <component base="K"/>
    <contour>
      <point x="581" y="57" type="line"/>
      <point x="655" y="57" type="line"/>
      <point x="621" y="-105" type="line"/>
      <point x="572" y="-105" type="line"/>
      <point x="587" y="0" type="line"/>
      <point x="569" y="0" type="line"/>
    </contour>
  </outline>
</glyph>
<glyph name="uni049C" format="2">
  <advance width="762"/>
  <unicode hex="049C"/>
  <outline>
    <contour>
      <point x="740" y="0" type="line"/>
      <point x="660" y="0" type="line"/>
      <point x="387" y="358" type="line"/>
      <point x="301" y="358" type="line"/>
      <point x="286" y="285" type="line"/>
      <point x="233" y="285" type="line"/>
      <point x="248" y="358" type="line"/>
      <point x="171" y="358" type="line"/>
      <point x="95" y="0" type="line"/>
      <point x="40" y="0" type="line"/>
      <point x="189" y="700" type="line"/>
      <point x="244" y="700" type="line"/>
      <point x="183" y="413" type="line"/>
      <point x="260" y="413" type="line"/>
      <point x="275" y="484" type="line"/>
      <point x="328" y="484" type="line"/>
      <point x="313" y="413" type="line"/>
      <point x="390" y="413" type="line"/>
      <point x="735" y="700" type="line"/>
      <point x="811" y="700" type="line"/>
      <point x="439" y="393" type="line"/>
    </contour>
  </outline>
</glyph>
<glyph name="uni04A0" format="2">
  <advance width="728"/>
  <unicode hex="04A0"/>
  <outline>
    <component base="K" xOffset="70.5"/>
    <contour>
      <point x="150" y="700" type="line"/>
      <point x="292" y="700" type="line"/>
      <point x="281" y="648" type="line"/>
      <point x="249" y="648" type="line"/>
      <point x="139" y="651" type="line"/>
    </contour>
  </outline>
</glyph>
<glyph name="uni04A1" format="2">
  <advance width="710"/>
  <unicode hex="04A1"/>
  <outline>
    <contour>
      <point x="571" y="118" type="line" smooth="yes"/>
      <point x="612" y="71"/>
      <point x="653" y="48"/>
      <point x="692" y="48" type="curve" smooth="yes"/>
      <point x="698" y="48" type="line"/>
      <point x="688" y="0" type="line"/>
      <point x="685" y="0" type="line" smooth="yes"/>
      <point x="579" y="0"/>
      <point x="535" y="70"/>
      <point x="488" y="122" type="curve" smooth="yes"/>
      <point x="360" y="264" type="line"/>
      <point x="221" y="180" type="line"/>
      <point x="183" y="0" type="line"/>
      <point x="130" y="0" type="line"/>
      <point x="225.188" y="449" type="line"/>
      <point x="96" y="451" type="line"/>
      <point x="106" y="500" type="line"/>
      <point x="289" y="500" type="line"/>
      <point x="236" y="249" type="line"/>
      <point x="646" y="500" type="line"/>
      <point x="742" y="500" type="line"/>
      <point x="411" y="300" type="line"/>
    </contour>
  </outline>
</glyph>
<glyph name="uni04A4" format="2">
  <advance width="797"/>
  <unicode hex="04A4"/>
  <outline>
    <component base="H"/>
    <contour>
      <point x="801" y="700" type="line"/>
      <point x="933" y="700" type="line"/>
      <point x="922" y="651" type="line"/>
      <point x="815" y="648" type="line"/>
      <point x="790" y="648" type="line"/>
    </contour>
  </outline>
</glyph>
<glyph name="uni04A5" format="2">
  <advance width="775" height="962"/>
  <unicode hex="04A5"/>
  <outline>
    <component base="uni043D"/>
    <contour>
      <point x="667" y="500" type="line"/>
      <point x="802" y="500" type="line"/>
      <point x="792" y="451" type="line"/>
      <point x="684" y="448" type="line"/>
      <point x="656" y="448" type="line"/>
    </contour>
  </outline>
</glyph>
<glyph name="uni04B2" format="2">
  <advance width="810" height="962"/>
  <unicode hex="04B2"/>
  <outline>
    <contour>
      <point x="734" y="57" type="line"/>
      <point x="800" y="57" type="line"/>
      <point x="766" y="-105" type="line"/>
      <point x="717" y="-105" type="line"/>
      <point x="734" y="0" type="line"/>
      <point x="722" y="0" type="line"/>
    </contour>
    <contour>
      <point x="485.809" y="401.669" type="line"/>
      <point x="829" y="700" type="line"/>
      <point x="906" y="700" type="line"/>
      <point x="518" y="362" type="line"/>
      <point x="783" y="0" type="line"/>
      <point x="715" y="0" type="line"/>
      <point x="477" y="325" type="line"/>
      <point x="103" y="0" type="line"/>
      <point x="25" y="0" type="line"/>
      <point x="446.916" y="370.324" type="line"/>
      <point x="201" y="700" type="line"/>
      <point x="265.055" y="700" type="line"/>
    </contour>
  </outline>
</glyph>
<glyph name="uni04B3" format="2">
  <advance width="641" height="962"/>
  <unicode hex="04B3"/>
  <outline>
    <component base="x" xOffset="1.5"/>
    <contour>
      <point x="552" y="57" type="line"/>
      <point x="627" y="57" type="line"/>
      <point x="593" y="-105" type="line"/>
      <point x="544" y="-105" type="line"/>
      <point x="558" y="0" type="line"/>
      <point x="540" y="0" type="line"/>
    </contour>
  </outline>
</glyph>
<glyph name="uni04BB" format="2">
  <advance width="627"/>
  <unicode hex="04BB"/>
  <outline>
    <contour>
      <point x="38" y="0" type="line"/>
      <point x="144" y="500" type="line"/>
      <point x="199" y="500" type="line"/>
      <point x="162" y="324" type="line"/>
      <point x="225" y="368"/>
      <point x="315" y="393"/>
      <point x="406" y="393" type="curve" smooth="yes"/>
      <point x="556" y="393"/>
      <point x="668" y="350"/>
      <point x="642" y="226" type="curve" smooth="yes"/>
      <point x="594" y="0" type="line"/>
      <point x="539" y="0" type="line"/>
      <point x="586" y="222" type="line" smooth="yes"/>
      <point x="608" y="325"/>
      <point x="479" y="340"/>
      <point x="386" y="340" type="curve" smooth="yes"/>
      <point x="280" y="340"/>
      <point x="154" y="288"/>
      <point x="139" y="218" type="curve" smooth="yes"/>
      <point x="93" y="0" type="line"/>
    </contour>
  </outline>
</glyph>
<glyph name="uni04CC" format="2">
  <advance width="643" height="962"/>
  <unicode hex="04CC"/>
  <outline>
    <contour>
      <point x="484" y="57" type="line"/>
      <point x="574" y="57" type="line"/>
      <point x="562" y="0" type="line"/>
      <point x="530" y="0" type="line"/>
      <point x="500" y="-105" type="line"/>
      <point x="450" y="-105" type="line"/>
    </contour>
    <contour>
      <point x="535" y="0" type="line"/>
      <point x="575" y="189" type="line"/>
      <point x="510" y="129"/>
      <point x="393" y="108"/>
      <point x="318" y="108" type="curve" smooth="yes"/>
      <point x="152" y="108"/>
      <point x="65" y="161"/>
      <point x="89" y="275" type="curve" smooth="yes"/>
      <point x="137" y="500" type="line"/>
      <point x="191" y="500" type="line"/>
      <point x="144" y="279" type="line" smooth="yes"/>
      <point x="122" y="176"/>
      <point x="254" y="161"/>
      <point x="347" y="161" type="curve" smooth="yes"/>
      <point x="454" y="161"/>
      <point x="581" y="217"/>
      <point x="596" y="287" type="curve" smooth="yes"/>
      <point x="622" y="409" type="line" smooth="yes"/>
      <point x="632" y="455"/>
      <point x="653" y="496"/>
      <point x="717" y="512" type="curve"/>
      <point x="738" y="470" type="line"/>
      <point x="709" y="462"/>
      <point x="685" y="450"/>
      <point x="676" y="408" type="curve" smooth="yes"/>
      <point x="589" y="0" type="line"/>
    </contour>
  </outline>
</glyph>
<glyph name="uni04F7" format="1">
  <advance width="456" height="962"/>
  <unicode hex="04F7"/>
  <outline>
    <component base="uni0433"/>
    <contour>
      <point x="74" y="57" type="line"/>
      <point x="162" y="57" type="line"/>
      <point x="128" y="-105" type="line"/>
      <point x="79" y="-105" type="line"/>
      <point x="93" y="0" type="line"/>
      <point x="62" y="0" type="line"/>
    </contour>
  </outline>
</glyph>
<glyph name="endash" format="2">
	<advance width="629"/>
	<unicode hex="2013"/>
	<outline>
		<contour>
			<point x="110" y="356" type="line"/>
			<point x="122" y="414" type="line"/>
			<point x="682" y="414" type="line"/>
			<point x="670" y="356" type="line"/>
		</contour>
	</outline>
</glyph>
<glyph name="emdash" format="2">
	<advance width="1040"/>
	<unicode hex="2014"/>
	<outline>
		<contour>
			<point x="110" y="356" type="line"/>
			<point x="122" y="414" type="line"/>
			<point x="1092" y="414" type="line"/>
			<point x="1080" y="356" type="line"/>
		</contour>
	</outline>
</glyph>
<glyph name="quoteleft" format="1">
  <advance width="128" height="962"/>
  <unicode hex="2018"/>
  <outline>
    <contour>
      <point x="247" y="702" type="line"/>
      <point x="220" y="676"/>
      <point x="206" y="649"/>
      <point x="198" y="627" type="curve"/>
      <point x="215" y="623"/>
      <point x="225" y="610"/>
      <point x="221" y="594" type="curve" smooth="yes"/>
      <point x="217" y="575"/>
      <point x="198" y="561"/>
      <point x="179" y="561" type="curve" smooth="yes"/>
      <point x="162" y="561"/>
      <point x="149" y="574"/>
      <point x="153" y="594" type="curve" smooth="yes"/>
      <point x="167" y="657"/>
      <point x="209" y="696"/>
      <point x="231" y="714" type="curve"/>
    </contour>
  </outline>
</glyph>
<glyph name="guilsinglleft" format="2">
  <advance width="426"/>
  <unicode hex="2039"/>
  <outline>
    <contour>
      <point x="98" y="267" type="line"/>
      <point x="418" y="455" type="line"/>
      <point x="466" y="417" type="line"/>
      <point x="209" y="267" type="line"/>
      <point x="398" y="114" type="line"/>
      <point x="338" y="79" type="line"/>
    </contour>
  </outline>
</glyph>
<glyph name="fraction" format="1">
  <advance width="624" height="962"/>
  <unicode hex="2044"/>
  <outline>
    <contour>
      <point x="3" y="-114" type="line"/>
      <point x="681" y="818" type="line"/>
      <point x="774" y="818" type="line"/>
      <point x="89" y="-114" type="line"/>
    </contour>
  </outline>
</glyph>
<glyph name="Euro" format="1">
  <advance width="605" height="962"/>
  <unicode hex="20AC"/>
  <outline>
    <component base="C"/>
    <contour>
      <point x="84" y="377" type="line"/>
      <point x="96" y="432" type="line"/>
      <point x="615" y="432" type="line"/>
      <point x="603" y="377" type="line"/>
    </contour>
    <contour>
      <point x="62" y="273" type="line"/>
      <point x="74" y="328" type="line"/>
      <point x="593" y="328" type="line"/>
      <point x="581" y="273" type="line"/>
    </contour>
  </outline>
</glyph>
<glyph name="uni20AE" format="1">
  <advance width="618" height="962"/>
  <unicode hex="20AE"/>
  <outline>
    <component base="T" xOffset="1"/>
    <contour>
      <point x="598" y="416" type="line"/>
      <point x="606" y="362" type="line"/>
      <point x="139" y="230" type="line"/>
      <point x="133" y="284" type="line"/>
    </contour>
    <contour>
      <point x="620" y="525" type="line"/>
      <point x="628" y="470" type="line"/>
      <point x="161" y="338" type="line"/>
      <point x="156" y="393" type="line"/>
    </contour>
  </outline>
</glyph>
<glyph name="Y_upper_alt" format="1">
  <advance width="723" height="962"/>
  <unicode hex="9997"/>
  <outline>
    <contour>
      <point x="461" y="342" type="line"/>
      <point x="388" y="0" type="line"/>
      <point x="330" y="0" type="line"/>
      <point x="402" y="340" type="line"/>
      <point x="154" y="700" type="line"/>
      <point x="225" y="700" type="line"/>
      <point x="442" y="390" type="line"/>
      <point x="791" y="700" type="line"/>
      <point x="864" y="700" type="line"/>
    </contour>
  </outline>
</glyph>
<glyph name="ff" format="1">
  <advance width="712" height="962"/>
  <unicode hex="FB00"/>
  <outline>
    <contour>
      <point x="810" y="636" type="line"/>
      <point x="786" y="644"/>
      <point x="753" y="649"/>
      <point x="721" y="648" type="curve"/>
      <point x="660" y="648"/>
      <point x="579" y="625"/>
      <point x="563" y="550" type="curve" smooth="yes"/>
      <point x="552" y="500" type="line"/>
      <point x="751" y="500" type="line"/>
      <point x="721" y="447" type="line"/>
      <point x="541" y="447" type="line"/>
      <point x="446" y="0" type="line"/>
      <point x="388" y="0" type="line"/>
      <point x="507" y="562" type="line" smooth="yes"/>
      <point x="512" y="583"/>
      <point x="523" y="601"/>
      <point x="538" y="620" type="curve"/>
      <point x="500" y="639"/>
      <point x="459" y="651"/>
      <point x="422" y="653" type="curve" smooth="yes"/>
      <point x="339" y="658"/>
      <point x="235" y="654"/>
      <point x="215" y="560" type="curve" smooth="yes"/>
      <point x="202" y="500" type="line"/>
      <point x="401" y="500" type="line"/>
      <point x="374" y="447" type="line"/>
      <point x="191" y="447" type="line"/>
      <point x="96" y="0" type="line"/>
      <point x="39" y="0" type="line"/>
      <point x="161" y="572" type="line" smooth="yes"/>
      <point x="181" y="666"/>
      <point x="282" y="706"/>
      <point x="402" y="706" type="curve" smooth="yes"/>
      <point x="475" y="706"/>
      <point x="533" y="692"/>
      <point x="588" y="666" type="curve"/>
      <point x="633" y="692"/>
      <point x="692" y="700"/>
      <point x="741" y="700" type="curve" smooth="yes"/>
      <point x="776" y="700"/>
      <point x="817" y="694"/>
      <point x="838" y="683" type="curve"/>
    </contour>
  </outline>
</glyph>
<glyph name="fl" format="2">
  <advance width="504" height="962"/>
  <unicode hex="FB02"/>
  <outline>
    <contour>
      <point x="535" y="623" type="line"/>
      <point x="489" y="643"/>
      <point x="434" y="649"/>
      <point x="402" y="649" type="curve" smooth="yes"/>
      <point x="330" y="649"/>
      <point x="234" y="640"/>
      <point x="217" y="560" type="curve" smooth="yes"/>
      <point x="204" y="500" type="line"/>
      <point x="405" y="500" type="line"/>
      <point x="369" y="447" type="line"/>
      <point x="193" y="447" type="line"/>
      <point x="98" y="0" type="line"/>
      <point x="39" y="0" type="line"/>
      <point x="161" y="572" type="line" smooth="yes"/>
      <point x="181" y="670"/>
      <point x="293" y="707"/>
      <point x="419" y="707" type="curve" smooth="yes"/>
      <point x="485" y="707"/>
      <point x="546" y="693"/>
      <point x="602" y="658" type="curve"/>
      <point x="462" y="0" type="line"/>
      <point x="403" y="0" type="line"/>
    </contour>
  </outline>
</glyph>
<glyph name="ffl" format="2">
  <advance width="844"/>
  <unicode hex="FB04"/>
  <outline>
    <contour>
      <point x="881" y="629" type="line"/>
      <point x="844" y="644"/>
      <point x="792" y="651"/>
      <point x="761" y="651" type="curve"/>
      <point x="697" y="652"/>
      <point x="576" y="625"/>
      <point x="561" y="557" type="curve" smooth="yes"/>
      <point x="549" y="500" type="line"/>
      <point x="752" y="500" type="line"/>
      <point x="719" y="447" type="line"/>
      <point x="538" y="447" type="line"/>
      <point x="443" y="0" type="line"/>
      <point x="384" y="0" type="line"/>
      <point x="503" y="561" type="line" smooth="yes"/>
      <point x="508" y="582"/>
      <point x="519" y="604"/>
      <point x="537" y="623" type="curve"/>
      <point x="479" y="648"/>
      <point x="454" y="653"/>
      <point x="391" y="654" type="curve" smooth="yes"/>
      <point x="309" y="655"/>
      <point x="232" y="640"/>
      <point x="215" y="561" type="curve" smooth="yes"/>
      <point x="202" y="500" type="line"/>
      <point x="402" y="500" type="line"/>
      <point x="371" y="447" type="line"/>
      <point x="191" y="447" type="line"/>
      <point x="96" y="0" type="line"/>
      <point x="39" y="0" type="line"/>
      <point x="160" y="570" type="line" smooth="yes"/>
      <point x="186" y="690"/>
      <point x="329" y="706"/>
      <point x="404" y="706" type="curve" smooth="yes"/>
      <point x="476" y="706"/>
      <point x="541" y="692"/>
      <point x="592" y="664" type="curve"/>
      <point x="639" y="691"/>
      <point x="701" y="705"/>
      <point x="773" y="705" type="curve" smooth="yes"/>
      <point x="847" y="705"/>
      <point x="891" y="693"/>
      <point x="946" y="666" type="curve"/>
      <point x="804" y="0" type="line"/>
      <point x="747" y="0" type="line"/>
    </contour>
  </outline>
</glyph>
<glyph name="descendercomb" format="2">
  <advance width="267" height="962"/>
  <outline>
    <contour>
      <point x="87" y="11" type="line"/>
      <point x="131" y="8" type="line"/>
      <point x="130" y="3" type="line"/>
      <point x="171" y="-109" type="line" smooth="yes"/>
      <point x="197" y="-180"/>
      <point x="129" y="-258"/>
      <point x="48" y="-227" type="curve" smooth="yes"/>
      <point x="-48" y="-190" type="line"/>
      <point x="-22" y="-151" type="line"/>
      <point x="68" y="-185" type="line" smooth="yes"/>
      <point x="113" y="-202"/>
      <point x="147" y="-169"/>
      <point x="130" y="-123" type="curve" smooth="yes"/>
      <point x="85" y="2" type="line"/>
    </contour>
  </outline>
</glyph>
<glyph name="ft" format="2">
  <advance width="707" height="962"/>
  <outline>
    <contour>
      <point x="484" y="133" type="line" smooth="yes"/>
      <point x="473" y="79"/>
      <point x="508" y="45"/>
      <point x="570" y="30" type="curve"/>
      <point x="537" y="-13" type="line"/>
      <point x="431" y="9"/>
      <point x="410" y="54"/>
      <point x="427" y="133" type="curve" smooth="yes"/>
      <point x="531" y="623" type="line"/>
      <point x="491" y="646"/>
      <point x="432" y="650"/>
      <point x="399" y="650" type="curve" smooth="yes"/>
      <point x="323" y="650"/>
      <point x="232" y="640"/>
      <point x="215" y="560" type="curve" smooth="yes"/>
      <point x="202" y="500" type="line"/>
      <point x="400" y="500" type="line"/>
      <point x="365" y="447" type="line"/>
      <point x="191" y="447" type="line"/>
      <point x="96" y="0" type="line"/>
      <point x="39" y="0" type="line"/>
      <point x="161" y="572" type="line"/>
      <point x="181" y="670"/>
      <point x="289" y="706"/>
      <point x="415" y="706" type="curve" smooth="yes"/>
      <point x="481" y="706"/>
      <point x="541" y="691"/>
      <point x="596" y="656" type="curve"/>
      <point x="563" y="500" type="line"/>
      <point x="783" y="500" type="line"/>
      <point x="747" y="447" type="line"/>
      <point x="551" y="447" type="line"/>
    </contour>
  </outline>
</glyph>
<glyph name="lambda_lambda" format="1">
  <advance width="1264" height="962"/>
  <outline>
    <component base="lambda" xOffset="539.25"/>
    <contour>
      <point x="634" y="-1" type="line"/>
      <point x="571" y="-1" type="line"/>
      <point x="464" y="456" type="line"/>
      <point x="406" y="452"/>
      <point x="359" y="423"/>
      <point x="318" y="360" type="curve" smooth="yes"/>
      <point x="82" y="-1" type="line"/>
      <point x="18" y="-1" type="line"/>
      <point x="260" y="371" type="line" smooth="yes"/>
      <point x="298" y="429"/>
      <point x="349" y="484"/>
      <point x="449" y="506" type="curve"/>
      <point x="431" y="578" type="line" smooth="yes"/>
      <point x="420" y="621"/>
      <point x="364" y="654"/>
      <point x="284" y="654" type="curve"/>
      <point x="308" y="697" type="line"/>
      <point x="488" y="695"/>
      <point x="494" y="600"/>
      <point x="503" y="557" type="curve" smooth="yes"/>
    </contour>
  </outline>
</glyph>
<glyph name="t_t" format="2">
  <advance width="539" height="962"/>
  <outline>
    <component base="t" xOffset="224.25"/>
    <contour>
      <point x="125" y="132" type="line" smooth="yes"/>
      <point x="114" y="79"/>
      <point x="157" y="45"/>
      <point x="220" y="30" type="curve"/>
      <point x="195" y="-13" type="line"/>
      <point x="90" y="9"/>
      <point x="51" y="54"/>
      <point x="68" y="132" type="curve" smooth="yes"/>
      <point x="189" y="700" type="line"/>
      <point x="246" y="700" type="line"/>
      <point x="203" y="500" type="line"/>
      <point x="410" y="500" type="line"/>
      <point x="399" y="448" type="line"/>
      <point x="192" y="448" type="line"/>
    </contour>
  </outline>
</glyph>
